<?xml version="1.0" encoding="utf-8" ?>
<svg baseProfile="full" height="200mm" version="1.1" viewBox="0,0,200,200" width="200mm" xmlns="http://www.w3.org/2000/svg" xmlns:ev="http://www.w3.org/2001/xml-events" xmlns:xlink="http://www.w3.org/1999/xlink"><defs /><rect fill="#1a1a1a" height="200" width="200" x="0" y="0" /><text alignment-baseline="middle" fill="#e1ed5e" style="dominant-baseline: central; font-size:9.0px; font-family:Arial;" text-anchor="middle" x="100.0" y="100.0">2026</text><line stroke="#e1ed5e" stroke-width="0.3" x1="100.0" x2="100.0" y1="15.0" y2="10.0" /><path d="M 100.0 14.0 a86.0,86.0 0 0,1 42.46469731375804,11.215312516191453" fill="none" id="id49" stroke="none" /><text fill="#e1ed5e" style="font-size:6.75px; font-family:Arial;" text-anchor="middle"><textPath startOffset="22.20632615414155" xlink:href="#id49">January</textPath></text><path d="M 100.72285384407766 79.0124445844662 l 1.1407433490469554 -33.12068469881779 a54.140323630086925,54.140323630086925 0 0,0 0.9311082960197332,0.04009548186493868 l -1.7106924774560202 33.09614149042866" fill="red" stroke="none" /><path d="M 101.08401301168833 79.027996857942 l 2.4279040857626204 -46.97177207857064 a68.03447767809111,68.03447767809111 0 0,0 1.1690200730299787,0.07051848326051068 l -3.2360862076322108 46.92302032592982" fill="red" stroke="none" /><path d="M 102.16513564639614 79.11191278185805 l 1.3450527600369118 -12.976359892932644 a34.045883756886454,34.045883756886454 0 0,0 0.5824007168529057,0.06543950648083241 l -1.5682201803995428 12.951284432981211" fill="red" stroke="none" /><path d="M 104.307194497241 79.44645832069477 l 4.157330445782642 -19.838404011421396 a41.26932831042538,41.26932831042538 0 0,0 0.6940268362915959,0.15168738515308536 l -4.498200006227766 19.76390312817244" fill="red" stroke="none" /><path d="M 105.71112130821622 79.79150937346287 l 2.5911480108380527 -9.168635625662443 a30.527745129370146,30.527745129370146 0 0,0 0.5044488662255925,0.14726245694995743 l -2.7485870947870725 9.122674839793783" fill="red" stroke="none" /><path d="M 106.74666289553966 80.11325718540242 l 7.919473183185418 -23.34376696443988 a45.65054789633017,45.65054789633017 0 0,0 0.7419692153042358,0.2588584902722036 l -8.320124402552928 23.20398762099547" fill="red" stroke="none" /><path d="M 108.76106565485865 80.91482961587045 l 10.50344871233095 -22.880790555956242 a46.17643762167521,46.17643762167521 0 0,0 0.7195207863989096,0.3378246569347092 l -10.89574771002946 22.69660091638153" fill="red" stroke="none" /><path d="M 109.08828744355905 81.06846463323043 l 12.94326773228891 -26.961727647495767 a50.90757324370282,50.90757324370282 0 0,0 0.7867128687786914,0.38603658805322705 l -13.405451868078032 26.734935899307708" fill="red" stroke="none" /><path d="M 110.05341064243156 81.56283822128135 l 13.970585574480808 -25.62095149013399 a50.18236482113282,50.18236482113282 0 0,0 0.7548285809711806,0.42006128807489745 l -14.409538244524024 25.376674804498915" fill="red" stroke="none" /><line stroke="#e1ed5e" stroke-width="0.3" x1="143.23703022742887" x2="145.7803849466894" y1="26.81831364943548" y2="22.513508569990506" /><path d="M 143.74570117128098 25.957352633546492 a86.0,86.0 0 0,1 28.547481713284135,27.462654790039103" fill="none" id="id50" stroke="none" /><text fill="#e1ed5e" style="font-size:6.75px; font-family:Arial;" text-anchor="middle"><textPath startOffset="19.985693538727396" xlink:href="#id50">February</textPath></text><path d="M 111.2981086023043 82.29822771554956 l 12.681677590067917 -19.869535405104468 a44.57166484814195,44.57166484814195 0 0,0 0.6431754364132717,0.4183391949318917 l -13.021820052265468 19.648297286013047" fill="red" stroke="none" /><path d="M 111.60114157652 82.49532879139004 l 17.814864006623228 -26.88040095064361 a53.24787333828142,53.24787333828142 0 0,0 0.7596577564278179,0.512924308179218 l -18.27492645745759 26.569764730165723" fill="red" stroke="none" /><path d="M 111.90073688211348 82.69761687909136 l 8.448382465652406 -12.2830335315106 a35.90798708820734,35.90798708820734 0 0,0 0.5062493722405011,0.3546600375205284 l -8.658562977476558 12.135788651226138" fill="red" stroke="none" /><path d="M 112.48926042617603 83.11751280151076 l 37.05594174233349 -50.090753234813754 a83.30751461936367,83.30751461936367 0 0,0 1.145493584151,0.862762019010033 l -37.91268148024287 49.44547462629787" fill="red" stroke="none" /><path d="M 113.34407831869373 83.78471172551755 l 15.320986157507159 -18.617562132058392 a45.11112267356252,45.11112267356252 0 0,0 0.5953432213471678,0.4985828267237759 l -15.639186915813443 18.351078147940797" fill="red" stroke="none" /><path d="M 115.19652480421416 85.50635884689758 l 15.701530459126126 -14.97528882168989 a42.697864734851116,42.697864734851116 0 0,0 0.5026813068828653,0.5362253697421059 l -15.956979087979454 14.70279403506973" fill="red" stroke="none" /><path d="M 115.4437574822437 85.77008943001954 l 16.953457857980773 -15.620951665964025 a44.05284937470235,44.05284937470235 0 0,0 0.5090335261788296,0.5620875334659945 l -17.21983502477564 15.326811345228482" fill="red" stroke="none" /><path d="M 116.82858285166822 87.43820079747576 l 11.965204309782104 -8.93150036943015 a35.931102203921824,35.931102203921824 0 0,0 0.3657057102177206,0.4988221777486274 l -12.117172632513451 8.724215748010028" fill="red" stroke="none" /><path d="M 117.04232023915458 87.72973835380427 l 12.707248893652777 -9.14906342214032 a36.658209857694004,36.658209857694004 0 0,0 0.36429075132769695,0.515263433107957 l -12.862852264784356 8.92897348870057" fill="red" stroke="none" /><path d="M 117.65298651832404 88.62581576622439 l 40.49131515416332 -26.089391613892687 a69.16848510900908,69.16848510900908 0 0,0 0.6362591682158621,1.006409206147744 l -40.934401918625134 25.388534760030737" fill="red" stroke="none" /><line stroke="#e1ed5e" stroke-width="0.3" x1="172.23445277983987" x2="176.4835382374775" y1="55.19839476539836" y2="52.563006222186495" /><path d="M 173.08426987136738 54.67131705675599 a86.0,86.0 0 0,1 12.851231095245387,41.99856678651699" fill="none" id="id51" stroke="none" /><text fill="#e1ed5e" style="font-size:6.75px; font-family:Arial;" text-anchor="middle"><textPath startOffset="22.20632615414155" xlink:href="#id51">March</textPath></text><path d="M 117.84615892207809 88.93136811851018 l 48.36605161596333 -29.997828845732133 a77.91348420520279,77.91348420520279 0 0,0 0.6970815610777822,1.1458188011565555 l -48.87524897532734 29.160842271368494" fill="red" stroke="none" /><path d="M 118.21658344932153 89.55222093294921 l 16.164381703668468 -9.270777325794107 a39.634230547203984,39.634230547203984 0 0,0 0.3343286230805342,0.5947333150700044 l -16.321567968041435 8.99116050078931" fill="red" stroke="none" /><path d="M 118.3937258080291 89.86733742301442 l 14.531937386404644 -8.005295917918096 a37.5910206719123,37.5910206719123 0 0,0 0.3073368472132669,0.5694485015084741 l -14.667582332836375 7.753966433077163" fill="red" stroke="none" /><path d="M 118.56541770881063 90.18545643968196 l 6.16232237853462 -3.257690312464579 a27.97042059483602,27.97042059483602 0 0,0 0.22135333587646447,0.4275841895615902 l -6.217485147571201 3.151133400642644" fill="red" stroke="none" /><path d="M 118.89224826269711 90.83032412892265 l 56.676744788091334 -27.509027613232025 a84.0,84.0 0 0,0 0.6201672246329752,1.3062303374378386 l -57.14187020656606 26.529354860153646" fill="red" stroke="none" /><line stroke="#e1ed5e" stroke-width="0.3" x1="184.98032266829074" x2="189.97916517819016" y1="98.17113171792111" y2="98.06355123074" /><path d="M 185.9800911702706 98.14961562048488 a86.0,86.0 0 0,1 -9.607161424134198,41.387399972396054" fill="none" id="id52" stroke="none" /><text fill="#e1ed5e" style="font-size:6.75px; font-family:Arial;" text-anchor="middle"><textPath startOffset="21.466115282336823" xlink:href="#id52">April</textPath></text><line stroke="#e1ed5e" stroke-width="0.3" x1="174.80103733775053" x2="179.2010983576182" y1="140.37084112569926" y2="142.7455964860345" /><path d="M 175.68104954172406 140.8457921977663 a86.0,86.0 0 0,1 -30.038265399797805,32.042727171017184" fill="none" id="id53" stroke="none" /><text fill="#e1ed5e" style="font-size:6.75px; font-family:Arial;" text-anchor="middle"><textPath startOffset="22.206326154141568" xlink:href="#id53">May</textPath></text><line stroke="#e1ed5e" stroke-width="0.3" x1="143.8653032363475" x2="146.44561519142675" y1="172.8068346515853" y2="177.08958963109032" /><path d="M 144.38136562736335 173.6633856474863 a86.0,86.0 0 0,1 -40.68145358897372,12.25698825130547" fill="none" id="id54" stroke="none" /><text fill="#e1ed5e" style="font-size:6.75px; font-family:Arial;" text-anchor="middle"><textPath startOffset="21.466115282336833" xlink:href="#id54">June</textPath></text><line stroke="#e1ed5e" stroke-width="0.3" x1="102.19456741930631" x2="102.32365962044197" y1="184.97166512339345" y2="189.96999836594603" /><path d="M 102.22038585953345 185.97133177190398 a86.0,86.0 0 0,1 -42.740103519485714,-10.115201625700543" fill="none" id="id55" stroke="none" /><text fill="#e1ed5e" style="font-size:6.75px; font-family:Arial;" text-anchor="middle"><textPath startOffset="22.20632615414155" xlink:href="#id55">July</textPath></text><line stroke="#e1ed5e" stroke-width="0.3" x1="58.666819895761336" x2="56.23545636021788" y1="174.27360380694188" y2="178.64263932499728" /><path d="M 58.180547188652646 175.14741091055294 a86.0,86.0 0 0,1 -31.652253787137756,-30.449443065178592" fill="none" id="id56" stroke="none" /><text fill="#e1ed5e" style="font-size:6.75px; font-family:Arial;" text-anchor="middle"><textPath startOffset="22.20632615414155" xlink:href="#id56">August</textPath></text><line stroke="#e1ed5e" stroke-width="0.3" x1="26.63291911575756" x2="22.317208475507996" y1="142.92168965132927" y2="145.44649492493687" /><path d="M 25.769776987707644 143.4266507060508 a86.0,86.0 0 0,1 -11.730757126820373,-40.83630448921669" fill="none" id="id57" stroke="none" /><text fill="#e1ed5e" style="font-size:6.75px; font-family:Arial;" text-anchor="middle"><textPath startOffset="21.46611528233685" xlink:href="#id57">September</textPath></text><line stroke="#e1ed5e" stroke-width="0.3" x1="15.007084014347285" x2="10.007500721073583" y1="101.09737516637583" y2="101.16192664675087" /><path d="M 14.007167355692545 101.11028546245083 a86.0,86.0 0 0,1 10.666146001902534,-42.60595125391555" fill="none" id="id58" stroke="none" /><text fill="#e1ed5e" style="font-size:6.75px; font-family:Arial;" text-anchor="middle"><textPath startOffset="22.20632615414155" xlink:href="#id58">October</textPath></text><line stroke="#e1ed5e" stroke-width="0.3" x1="26.266209847984243" x2="21.928928074336255" y1="57.711370442889674" y2="55.22380399835377" /><path d="M 25.398753493254645 57.213857153982495 a86.0,86.0 0 0,1 29.58750427330803,-30.492523968695096" fill="none" id="id59" stroke="none" /><text fill="#e1ed5e" style="font-size:6.75px; font-family:Arial;" text-anchor="middle"><textPath startOffset="21.46611528233685" xlink:href="#id59">November</textPath></text><line stroke="#e1ed5e" stroke-width="0.3" x1="56.762969772571076" x2="54.21961505331055" y1="26.818313649435495" y2="22.513508569990535" /><path d="M 56.25429882871897 25.957352633546506 a86.0,86.0 0 0,1 42.265352541879196,-11.944610805530505" fill="none" id="id60" stroke="none" /><text fill="#e1ed5e" style="font-size:6.75px; font-family:Arial;" text-anchor="middle"><textPath startOffset="22.20632615414155" xlink:href="#id60">December</textPath></text></svg>