<?xml version="1.0" encoding="utf-8" ?>
<svg baseProfile="full" height="200mm" version="1.1" viewBox="0,0,200,200" width="200mm" xmlns="http://www.w3.org/2000/svg" xmlns:ev="http://www.w3.org/2001/xml-events" xmlns:xlink="http://www.w3.org/1999/xlink"><defs /><rect fill="#1a1a1a" height="200" width="200" x="0" y="0" /><text alignment-baseline="middle" fill="#e1ed5e" style="dominant-baseline: central; font-size:9.0px; font-family:Arial;" text-anchor="middle" x="100.0" y="100.0">2025</text><line stroke="#e1ed5e" stroke-width="0.3" x1="100.0" x2="100.0" y1="15.0" y2="10.0" /><path d="M 100.0 14.0 a86.0,86.0 0 0,1 42.46469731375804,11.215312516191453" fill="none" id="id37" stroke="none" /><text fill="#e1ed5e" style="font-size:6.75px; font-family:Arial;" text-anchor="middle"><textPath startOffset="22.20632615414155" xlink:href="#id37">January</textPath></text><line stroke="#e1ed5e" stroke-width="0.3" x1="143.23703022742887" x2="145.7803849466894" y1="26.81831364943548" y2="22.513508569990506" /><path d="M 143.74570117128098 25.957352633546492 a86.0,86.0 0 0,1 28.547481713284135,27.462654790039103" fill="none" id="id38" stroke="none" /><text fill="#e1ed5e" style="font-size:6.75px; font-family:Arial;" text-anchor="middle"><textPath startOffset="19.985693538727396" xlink:href="#id38">February</textPath></text><path d="M 113.34407831869373 83.78471172551755 l 1.4095416668256744 -1.7128290104872697 a23.218240503120548,23.218240503120548 0 0,0 0.30641716002430525,0.2566155594345821 l -1.438816363809097 1.6883122936588684" fill="#ff0000" stroke="none" /><path d="M 113.89432698308785 84.25364557470407 l 3.235097674836469 -3.6663160907636003 a25.889553215082582,25.889553215082582 0 0,0 0.3316193024241012,0.2977310839982127 l -3.29772796485656 3.6100859979960904" fill="#ff2703" stroke="none" /><path d="M 114.42810811169701 84.74124197986012 l 15.906538255539193 -16.82230381837795 a44.15184366379371,44.15184366379371 0 0,0 0.5477283380868163,0.5269142272749238 l -16.19374983723843 16.546006504340724" fill="#e4ff1b" stroke="none" /><path d="M 116.38621287248628 86.86637796730983 l 1.8939294545260394 -1.5179928276221586 a23.427194059698074,23.427194059698074 0 0,0 0.24949506450403808,0.3168333952996405 l -1.9197785996240415 1.4851670383694797" fill="#ff0300" stroke="none" /><path d="M 116.82858285166822 87.43820079747576 l 5.211418599674706 -3.8900954754442827 a27.50320894859665,27.50320894859665 0 0,0 0.27992685848404286,0.38181992038410356 l -5.277608070672375 3.7998131113886853" fill="#ff3f05" stroke="none" /><path d="M 117.2510076193507 88.02491185347247 l 4.119956157678752 -2.8599395024723138 a26.01530584301662,26.01530584301662 0 0,0 0.2521942756087348,0.37006398031670806 l -4.16857489895622 2.788597498885199" fill="#ff2904" stroke="none" /><path d="M 117.45458315368197 88.32363383020206 l 3.4119540532417867 -2.2824506623507332 a25.10499835414076,25.10499835414076 0 0,0 0.23718648299025163,0.3612512860234078 l -3.4507371715899633 2.2233813123496513" fill="#ff1c02" stroke="none" /><line stroke="#e1ed5e" stroke-width="0.3" x1="172.23445277983987" x2="176.4835382374775" y1="55.19839476539836" y2="52.563006222186495" /><path d="M 173.08426987136738 54.67131705675599 a86.0,86.0 0 0,1 12.851231095245387,41.99856678651699" fill="none" id="id39" stroke="none" /><text fill="#e1ed5e" style="font-size:6.75px; font-family:Arial;" text-anchor="middle"><textPath startOffset="22.20632615414155" xlink:href="#id39">March</textPath></text><path d="M 117.84615892207809 88.93136811851018 l 15.149762703092545 -9.396259844184401 a38.82708638615537,38.82708638615537 0 0,0 0.3473807681206964,0.5710026451674941 l -15.309259269499465 9.134089425809826" fill="#ffd814" stroke="none" /><path d="M 118.3937258080291 89.86733742301442 l 7.249591254343219 -3.99362602052382 a29.276812317967263,29.276812317967263 0 0,0 0.23936150265219344,0.4435005117024717 l -7.317260856213878 3.8682445254888895" fill="#ff5808" stroke="none" /><path d="M 118.73160827565052 90.50648371742162 l 9.264429845918425 -4.695379825199625 a31.386349314019615,31.386349314019615 0 0,0 0.2400906070116152,0.4840080132079912 l -9.343880465883448 4.5352122234926835" fill="#ff750a" stroke="none" /><path d="M 119.196687751892 91.48605970444005 l 22.516333282073017 -9.986239278159061 a45.63148877737673,45.63148877737673 0 0,0 0.3122699457627852,0.7207620886306046 l -22.68489393767848 9.597178044941854" fill="#d2ff1c" stroke="none" /><path d="M 119.47837535516314 92.15188598940014 l 5.861173887101954 -2.3615501838932293 a27.319040956180928,27.319040956180928 0 0,0 0.17198825835491033,0.43769135785713786 l -5.900955695338565 2.2603098211403068" fill="#ff3c05" stroke="none" /><path d="M 119.97218684219823 93.5106431181261 l 14.516630380610088 -4.71673913359321 a36.26368846844109,36.26368846844109 0 0,0 0.1877846313943384,0.5953285982980595 l -14.595670495772634 4.4661603688687315" fill="#ffb711" stroke="none" /><path d="M 120.6074358757038 95.95851677861258 l 19.218652533297693 -3.769118206626226 a40.58476084232716,40.58476084232716 0 0,0 0.12854599941518477,0.6866978689627516 l -19.280684256622738 3.4377422602009116" fill="#ffef16" stroke="none" /><path d="M 120.96714384426684 98.82574320788733 l 15.864722382909378 -0.8884976490590113 a36.889582888143075,36.889582888143075 0 0,0 0.03004988842797524,0.6343056505818432 l -15.87766587957085 0.6152808918541683" fill="#ffbf11" stroke="none" /><line stroke="#e1ed5e" stroke-width="0.3" x1="184.98032266829074" x2="189.97916517819016" y1="98.17113171792111" y2="98.06355123074" /><path d="M 185.9800911702706 98.14961562048488 a86.0,86.0 0 0,1 -9.607161424134198,41.387399972396054" fill="none" id="id40" stroke="none" /><text fill="#e1ed5e" style="font-size:6.75px; font-family:Arial;" text-anchor="middle"><textPath startOffset="21.466115282336823" xlink:href="#id40">April</textPath></text><path d="M 120.95626037817324 101.35467743843564 l 12.817356671514847 0.8285535486745692 a33.844108884147914,33.844108884147914 0 0,0 -0.04258465836466907,0.5810338297173162 l -12.80119545448584 -1.0490605148886558" fill="#ff970d" stroke="none" /><path d="M 120.41448212921028 104.9243191809786 l 9.68001809575389 2.3349844722700692 a30.95765548810889,30.95765548810889 0 0,0 -0.1294158041813036,0.5169518065336289 l -9.638390977277526 -2.501264118201094" fill="#ff6f0a" stroke="none" /><path d="M 120.32669344350535 105.2749913415812 l 2.232853397781592 0.5794490074371341 a23.306815000862592,23.306815000862592 0 0,0 -0.10411700712272585,0.387458115981013 l -2.222548314317089 -0.6177980565936954" fill="#ff0100" stroke="none" /><path d="M 120.02730092923936 106.31721596034902 l 32.60569093830813 10.284820302118991 a55.18930549472083,55.18930549472083 0 0,0 -0.29357490879961595,0.903530663740311 l -32.42382377849226 -10.844549865837097" fill="#66ff29" stroke="none" /><path d="M 119.9155931802556 106.66101706037122 l 30.153061483564922 10.08506526250857 a52.794899876878105,52.794899876878105 0 0,0 -0.295674490712141,0.8593684721706796 l -29.974996161909548 -10.60260643776855" fill="#80ff25" stroke="none" /><path d="M 119.41010516605496 108.01547362559984 l 2.2586968512891406 0.9327370915740989 a23.443708237090014,23.443708237090014 0 0,0 -0.1572392048765673,0.3716670326179649 l -2.2423066652202643 -0.9714786498582273" fill="#ff0300" stroke="none" /><path d="M 119.26925614724726 108.34839909993367 l 17.18844529541317 7.4468884598841 a39.732292956479355,39.732292956479355 0 0,0 -0.27729151223051907,0.6252191572584986 l -17.05771269845138 -7.741655953635286" fill="#ffe415" stroke="none" /><path d="M 118.81262510543309 109.33194174019688 l 5.739376989751666 2.8469993630990436 a27.406703801798336,27.406703801798336 0 0,0 -0.2132780948601715,0.4208179148572204 l -5.689520225105226 -2.9453714896589585" fill="#ff3d05" stroke="none" /><line stroke="#e1ed5e" stroke-width="0.3" x1="174.80103733775053" x2="179.2010983576182" y1="140.37084112569926" y2="142.7455964860345" /><path d="M 175.68104954172406 140.8457921977663 a86.0,86.0 0 0,1 -30.038265399797805,32.042727171017184" fill="none" id="id41" stroke="none" /><text fill="#e1ed5e" style="font-size:6.75px; font-family:Arial;" text-anchor="middle"><textPath startOffset="22.206326154141568" xlink:href="#id41">May</textPath></text><path d="M 117.94076556474637 110.91462005526583 l 8.95694001426981 5.44913185341789 a31.484264989743494,31.484264989743494 0 0,0 -0.28566027498143415,0.4605753194817657 l -8.861815099620411 -5.602503504264929" fill="#ff770a" stroke="none" /><path d="M 117.14729908036423 112.12312394758627 l 9.000483854804255 6.363333423453841 a32.0227365875556,32.0227365875556 0 0,0 -0.32208805098689874,0.44735213220377773 l -8.889616011441753 -6.51731916110875" fill="#ff7e0b" stroke="none" /><path d="M 116.71984013943494 112.70617746262583 l 16.16508157734184 12.284590851744259 a41.303227201528216,41.303227201528216 0 0,0 -0.435047251612918,0.5623572176693815 l -15.951227508510854 -12.561026063526892" fill="#fff817" stroke="none" /><path d="M 115.07121518719521 114.62390073753431 l 45.21364556158561 43.87170221260295 a84.0,84.0 0 0,0 -1.0158374997778576,1.0290380240773414 l -44.45176743675221 -44.643480730660954" fill="#4dd2ff" stroke="none" /><path d="M 113.75828350139079 115.86535959552629 l 4.217500712154021 4.863409406118704 a27.437395693022417,27.437395693022417 0 0,0 -0.35947498990317617,0.306352385038844 l -4.133160245673798 -4.935286181380495" fill="#ff3e05" stroke="none" /><path d="M 112.92097659922987 116.55440617244103 l 10.975725304896121 14.062142543096869 a38.83845281606317,38.83845281606317 0 0,0 -0.5305541115566423,0.40680626875370635 l -10.732042464845986 -14.248988153677947" fill="#ffd814" stroke="none" /><path d="M 112.63410532772338 116.77436683061366 l 2.323664591130127 3.0851414668353394 a24.862319899032038,24.862319899032038 0 0,0 -0.3440649444247768,0.25453102045434084 l -2.270214676286786 -3.124682436029449" fill="#ff1802" stroke="none" /><path d="M 112.34349029814194 116.9893568818739 l 5.2410647093584535 7.213706709980479 a29.916631863282234,29.916631863282234 0 0,0 -0.41922129524615553,0.2991032631423891 l -5.116116086263413 -7.3028542349670875" fill="#ff6108" stroke="none" /><path d="M 111.45004920935366 117.60387380957326 l 6.776251012969117 10.418144547086612 a33.42800521382074,33.42800521382074 0 0,0 -0.48505340523434615,0.30958403272812485 l -6.59591580568784 -10.533243008638546" fill="#ff910d" stroke="none" /><line stroke="#e1ed5e" stroke-width="0.3" x1="143.8653032363475" x2="146.44561519142675" y1="172.8068346515853" y2="177.08958963109032" /><path d="M 144.38136562736335 173.6633856474863 a86.0,86.0 0 0,1 -40.68145358897372,12.25698825130547" fill="none" id="id42" stroke="none" /><text fill="#e1ed5e" style="font-size:6.75px; font-family:Arial;" text-anchor="middle"><textPath startOffset="21.466115282336833" xlink:href="#id42">June</textPath></text><path d="M 108.59647513512805 119.15986991738527 l 7.867965398703694 17.53616350702161 a40.22035145516843,40.22035145516843 0 0,0 -0.6341012773716759,0.27797136548094786 l -7.564943446674264 -17.66899942579701" fill="#ffea16" stroke="none" /><path d="M 107.93186726928326 119.44442032107085 l 6.754811230035572 16.558949398326185 a38.883687537243034,38.883687537243034 0 0,0 -0.6219148156920707,0.24747274002290204 l -6.4687753383016355 -16.672768982755155" fill="#ffd914" stroke="none" /><path d="M 106.57524785965236 119.94407469862006 l 2.1647302645761797 6.5660706669320135 a27.913706756980446,27.913706756980446 0 0,0 -0.4576234959913884,0.14651659214274612 l -2.051385423493851 -6.602360105734466" fill="#ff4506" stroke="none" /><path d="M 106.2309692047433 120.05430185196036 l 2.361091834197827 7.599146583352856 a28.95749856706233,28.95749856706233 0 0,0 -0.47728166341290446,0.14380104998512264 l -2.2299351963446767 -7.638663002443704" fill="#ff5307" stroke="none" /><path d="M 105.53697534728816 120.25689768951611 l 2.024556485145282 7.406793603717306 a28.678503789776457,28.678503789776457 0 0,0 -0.4773052933520744,0.12606066613458658 l -1.8967607489817104 -7.440545619155476" fill="#ff4f07" stroke="none" /><path d="M 104.48393922423573 120.51570834832081 l 1.1472979232152665 5.2493194943627906 a26.373234377775763,26.373234377775763 0 0,0 -0.4443369291705395,0.09311512371472633 l -1.056769532615349 -5.268290598804058" fill="#ff2e04" stroke="none" /><path d="M 103.41894727170886 120.7198165907248 l 0.9499125873860131 5.756747040448377 a26.834592566013974,26.834592566013974 0 0,0 -0.4563978132979851,0.07127995214204914 l -0.8506789104795108 -5.7722452999375315" fill="#ff3505" stroke="none" /><path d="M 101.62511606390274 120.93702456842531 l 1.3868281800995312 17.867065820024003 a38.920807275850834,38.920807275850834 0 0,0 -0.668394880200865,0.04609642427204875 l -1.079070539119736 -17.88829058881234" fill="#ffd914" stroke="none" /><line stroke="#e1ed5e" stroke-width="0.3" x1="102.19456741930631" x2="102.32365962044197" y1="184.97166512339345" y2="189.96999836594603" /><path d="M 102.22038585953345 185.97133177190398 a86.0,86.0 0 0,1 -42.740103519485714,-10.115201625700543" fill="none" id="id43" stroke="none" /><text fill="#e1ed5e" style="font-size:6.75px; font-family:Arial;" text-anchor="middle"><textPath startOffset="22.20632615414155" xlink:href="#id43">July</textPath></text><path d="M 98.01472825383883 120.90594882070398 l -0.3615154210354053 3.8069462806165597 a24.824072878901063,24.824072878901063 0 0,0 -0.42504416317809374,-0.0440575654141364 l 0.42699218081909235 -3.800159346746663" fill="#ff1802" stroke="none" /><path d="M 95.16358092515715 120.4354850818985 l -1.2402221372548978 5.2403525401562225 a26.385113340948255,26.385113340948255 0 0,0 -0.44106701761990375,-0.10840354182374841 l 1.3302424396180121 -5.218227740018444" fill="#ff2f04" stroke="none" /><path d="M 91.7346041902142 119.30500536409082 l -1.8905003506818001 4.4155319661180945 a25.803219141340392,25.803219141340392 0 0,0 -0.4068053516653991,-0.1783315112628371 l 1.9662263770049426 -4.382335901560805" fill="#ff2603" stroke="none" /><path d="M 91.40352486487194 119.15986991738527 l -7.952611030399969 17.724822145228824 a40.4271290282644,40.4271290282644 0 0,0 -0.6324574154773733,-0.29033017936833044 l 8.256536441644762 -17.58530489552642" fill="#ffed16" stroke="none" /><line stroke="#e1ed5e" stroke-width="0.3" x1="58.666819895761336" x2="56.23545636021788" y1="174.27360380694188" y2="178.64263932499728" /><path d="M 58.180547188652646 175.14741091055294 a86.0,86.0 0 0,1 -31.652253787137756,-30.449443065178592" fill="none" id="id44" stroke="none" /><text fill="#e1ed5e" style="font-size:6.75px; font-family:Arial;" text-anchor="middle"><textPath startOffset="22.20632615414155" xlink:href="#id44">August</textPath></text><path d="M 89.1626897886671 117.98757091392108 l -1.5466327881785114 2.5670730478919075 a23.996987990413356,23.996987990413356 0 0,0 -0.3519795923819953,-0.2162146137698623 l 1.5905915804928155 -2.540069967293667" fill="#ff0c01" stroke="none" /><path d="M 88.8546689885994 117.79835938074946 l -2.8603954629754718 4.56786311407228 a26.38954874117609,26.38954874117609 0 0,0 -0.3829226541526694,-0.2443993552385567 l 2.9385999191750645 -4.517949330009919" fill="#ff2f04" stroke="none" /><path d="M 88.54995079064634 117.60387380957326 l -3.023319533350914 4.6482014686582875 a26.544929025152463,26.544929025152463 0 0,0 -0.38088851121097134,-0.25243213601492603 l 3.102882743301847 -4.595471311552043" fill="#ff3104" stroke="none" /><path d="M 88.24862548938628 117.40417183066458 l -2.1645398093028145 3.2057545899328774 a24.868086746303963,24.868086746303963 0 0,0 -0.35270421095178023,-0.2425931724213343 l 2.219400904877485 -3.1680206281464423" fill="#ff1802" stroke="none" /><path d="M 87.36589467227662 116.77436683061367 l -36.77335174522603 48.82416884811291 a82.1234722695558,82.1234722695558 0 0,0 -1.1218507100236836,-0.8601872862777851 l 37.608331183743196 -48.18394222000776" fill="#4be4ff" stroke="none" /><path d="M 87.07902340077011 116.55440617244103 l -17.203505182324946 22.041198681133412 a48.96024016097642,48.96024016097642 0 0,0 -0.6598966253487174,-0.524261789255599 l 17.58035930039102 -21.741802977872684" fill="#abff21" stroke="none" /><line stroke="#e1ed5e" stroke-width="0.3" x1="26.63291911575756" x2="22.317208475507996" y1="142.92168965132927" y2="145.44649492493687" /><path d="M 25.769776987707644 143.4266507060508 a86.0,86.0 0 0,1 -11.730757126820373,-40.83630448921669" fill="none" id="id45" stroke="none" /><text fill="#e1ed5e" style="font-size:6.75px; font-family:Arial;" text-anchor="middle"><textPath startOffset="21.46611528233685" xlink:href="#id45">September</textPath></text><path d="M 81.69416730710424 110.29060199501025 l -2.9511696340912743 1.6589964867306608 a24.38550905362356,24.38550905362356 0 0,0 -0.20254324030883677,-0.36767481382162065 l 2.9792892838516276 -1.6079511545112175" fill="#ff1101" stroke="none" /><path d="M 80.87730276802145 108.67885076344099 l -24.0902233121361 10.933366273998383 a47.45519528013337,47.45519528013337 0 0,0 -0.33118961638674443,-0.746745153446859 l 24.274854013254124 -10.517072784058827" fill="#bcff1f" stroke="none" /><path d="M 80.73074385275274 108.34839909993369 l -14.364575744519982 6.223447874691907 a36.65478648110727,36.65478648110727 0 0,0 -0.24584717668902212,-0.5811101036108718 l 14.469573902401311 -5.975263245414876" fill="#ffbc11" stroke="none" /><path d="M 80.58989483394504 108.01547362559985 l -5.260836196951817 2.172481469034659 a26.691754845779766,26.691754845779766 0 0,0 -0.17171363335940704,-0.42617915586546756 l 5.297452444568611 -2.0816029453263862" fill="#ff3304" stroke="none" /><path d="M 80.0844068197444 106.66101706037122 l -22.659501049467767 7.578751067261322 a44.89331403448139,44.89331403448139 0 0,0 -0.23880624072440662,-0.73497003565222 l 22.786599541208425 -7.1875821316312996" fill="#dbff1b" stroke="none" /><line stroke="#e1ed5e" stroke-width="0.3" x1="15.007084014347285" x2="10.007500721073583" y1="101.09737516637583" y2="101.16192664675087" /><path d="M 14.007167355692545 101.11028546245083 a86.0,86.0 0 0,1 10.666146001902534,-42.60595125391555" fill="none" id="id46" stroke="none" /><text fill="#e1ed5e" style="font-size:6.75px; font-family:Arial;" text-anchor="middle"><textPath startOffset="22.20632615414155" xlink:href="#id46">October</textPath></text><line stroke="#e1ed5e" stroke-width="0.3" x1="26.266209847984243" x2="21.928928074336255" y1="57.711370442889674" y2="55.22380399835377" /><path d="M 25.398753493254645 57.213857153982495 a86.0,86.0 0 0,1 29.58750427330803,-30.492523968695096" fill="none" id="id47" stroke="none" /><text fill="#e1ed5e" style="font-size:6.75px; font-family:Arial;" text-anchor="middle"><textPath startOffset="21.46611528233685" xlink:href="#id47">November</textPath></text><line stroke="#e1ed5e" stroke-width="0.3" x1="56.762969772571076" x2="54.21961505331055" y1="26.818313649435495" y2="22.513508569990535" /><path d="M 56.25429882871897 25.957352633546506 a86.0,86.0 0 0,1 42.265352541879196,-11.944610805530505" fill="none" id="id48" stroke="none" /><text fill="#e1ed5e" style="font-size:6.75px; font-family:Arial;" text-anchor="middle"><textPath startOffset="22.20632615414155" xlink:href="#id48">December</textPath></text></svg>