<?xml version="1.0" encoding="utf-8" ?>
<svg baseProfile="full" height="200mm" version="1.1" viewBox="0,0,200,200" width="200mm" xmlns="http://www.w3.org/2000/svg" xmlns:ev="http://www.w3.org/2001/xml-events" xmlns:xlink="http://www.w3.org/1999/xlink"><defs /><rect fill="#1a1a1a" height="200" width="200" x="0" y="0" /><text alignment-baseline="middle" fill="#e1ed5e" style="dominant-baseline: central; font-size:9.0px; font-family:Arial;" text-anchor="middle" x="100.0" y="100.0">2023</text><line stroke="#e1ed5e" stroke-width="0.3" x1="100.0" x2="100.0" y1="15.0" y2="10.0" /><path d="M 100.0 14.0 a86.0,86.0 0 0,1 42.46469731375804,11.215312516191453" fill="none" id="id13" stroke="none" /><text fill="#e1ed5e" style="font-size:6.75px; font-family:Arial;" text-anchor="middle"><textPath startOffset="22.20632615414155" xlink:href="#id13">January</textPath></text><path d="M 100.36148047927253 79.00311137660856 l 0.04054667967015032 -2.355186976612978 a23.355535974685942,23.355535974685942 0 0,0 0.4019080296190272,0.010380098660873376 l -0.08108134448404535 2.3541400858097448" fill="#ff1502" stroke="none" /><path d="M 107.76421540070413 80.48803036053334 l 0.9321776447895833 -2.3426220120160965 a23.521276076241513,23.521276076241513 0 0,0 0.37490240526584745,0.15293210434673302 l -0.9723639196438182 2.3262290214857844" fill="#ff1702" stroke="none" /><line stroke="#e1ed5e" stroke-width="0.3" x1="143.23703022742887" x2="145.7803849466894" y1="26.81831364943548" y2="22.513508569990506" /><path d="M 143.74570117128098 25.957352633546492 a86.0,86.0 0 0,1 28.547481713284135,27.462654790039103" fill="none" id="id14" stroke="none" /><text fill="#e1ed5e" style="font-size:6.75px; font-family:Arial;" text-anchor="middle"><textPath startOffset="19.985693538727396" xlink:href="#id14">February</textPath></text><path d="M 117.45458315368197 88.32363383020206 l 3.662853983367221 -2.450291935346319 a25.406861680594517,25.406861680594517 0 0,0 0.24003842106789328,0.36559498337588087 l -3.7044890397930392 2.386878887992764" fill="#ff3204" stroke="none" /><path d="M 117.65298651832404 88.62581576622439 l 3.978261153429714 -2.5632759217378127 a25.73254109922447,25.73254109922447 0 0,0 0.2367055628017585,0.37441135538851916 l -4.021794312477429 2.4944169186350873" fill="#ff3705" stroke="none" /><line stroke="#e1ed5e" stroke-width="0.3" x1="172.23445277983987" x2="176.4835382374775" y1="55.19839476539836" y2="52.563006222186495" /><path d="M 173.08426987136738 54.67131705675599 a86.0,86.0 0 0,1 12.851231095245387,41.99856678651699" fill="none" id="id15" stroke="none" /><text fill="#e1ed5e" style="font-size:6.75px; font-family:Arial;" text-anchor="middle"><textPath startOffset="22.20632615414155" xlink:href="#id15">March</textPath></text><path d="M 118.73160827565052 90.50648371742162 l 2.1054894008592973 -1.0670999316079703 a23.36046348863281,23.36046348863281 0 0,0 0.17869640724839797,0.36024105281019553 l -2.123545821061103 1.0306992902988248" fill="#ff1502" stroke="none" /><path d="M 118.89224826269711 90.83032412892265 l 1.8401949969133735 -0.893170120709859 a23.04550005895719,23.04550005895719 0 0,0 0.1701436168076494,0.35836584902899266 l -1.855296807562779 0.861361856040326" fill="#ff1001" stroke="none" /><path d="M 119.196687751892 91.48605970444005 l 1.99237805624185 -0.8836413883616473 a23.179539497742528,23.179539497742528 0 0,0 0.15862453178067254,0.36612728949951545 l -2.0072932978652034 0.8492149542755291" fill="#ff1202" stroke="none" /><path d="M 119.34039704204932 91.81776055985345 l 2.545576904259446 -1.076943751396263 a23.764013317473445,23.764013317473445 0 0,0 0.15613897477899646,0.3781029122597257 l -2.5637375659246397 1.0329662686832342" fill="#ff1b02" stroke="none" /><path d="M 119.85752413597 93.16781622104841 l 5.029117860319649 -1.7303193103248968 a26.318461372302078,26.318461372302078 0 0,0 0.14370219070053764,0.42965125943453614 l -5.058157344791956 1.6434949479680465" fill="#ff3f05" stroke="none" /><path d="M 120.45610955862082 95.25157060432595 l 4.173111004644908 -0.9686946048602781 a25.284066373735804,25.284066373735804 0 0,0 0.09476180681076406,0.4247985990096035 l -4.189167198457709 0.8967178363007108" fill="#ff3004" stroke="none" /><line stroke="#e1ed5e" stroke-width="0.3" x1="184.98032266829074" x2="189.97916517819016" y1="98.17113171792111" y2="98.06355123074" /><path d="M 185.9800911702706 98.14961562048488 a86.0,86.0 0 0,1 -9.607161424134198,41.387399972396054" fill="none" id="id16" stroke="none" /><text fill="#e1ed5e" style="font-size:6.75px; font-family:Arial;" text-anchor="middle"><textPath startOffset="21.466115282336823" xlink:href="#id16">April</textPath></text><path d="M 120.99980553446 99.90962569577887 l 4.1944345890583286 -0.01805107704283966 a25.194473430988843,25.194473430988843 0 0,0 -0.001866433838387317,0.433693492711979 l -4.194123857930438 -0.05415189387282404" fill="#ff2f04" stroke="none" /><path d="M 120.9904718944345 100.63252640178507 l 5.086373894144106 0.15327267502973704 a26.08868272777361,26.08868272777361 0 0,0 -0.01738980547192785,0.44875360936688236 l -5.0829819558209755 -0.24080353141062558" fill="#ff3c05" stroke="none" /><path d="M 120.8583938346157 102.4346265915055 l 3.1492389121118776 0.3675844295214747 a24.170618873088696,24.170618873088696 0 0,0 -0.051792446183744754,0.4128367551268062 l -3.1424449566812847 -0.42173893893567577" fill="#ff2103" stroke="none" /><line stroke="#e1ed5e" stroke-width="0.3" x1="174.80103733775053" x2="179.2010983576182" y1="140.37084112569926" y2="142.7455964860345" /><path d="M 175.68104954172406 140.8457921977663 a86.0,86.0 0 0,1 -30.038265399797805,32.042727171017184" fill="none" id="id17" stroke="none" /><text fill="#e1ed5e" style="font-size:6.75px; font-family:Arial;" text-anchor="middle"><textPath startOffset="22.206326154141568" xlink:href="#id17">May</textPath></text><path d="M 118.48025628344425 109.97397251340804 l 3.742002718957505 2.019594949958364 a25.252216846608682,25.252216846608682 0 0,0 -0.20974201579497928,0.3807426823546629 l -3.706684293711016 -2.0837081507108324" fill="#ff3004" stroke="none" /><path d="M 118.12598468904814 110.60418214915192 l 0.7952946093137122 0.46526845542889483 a21.921394731491688,21.921394731491688 0 0,0 -0.19334578741144695,0.3240586609304985 l -0.7871679462040381 -0.47888921024549747" fill="#ff0000" stroke="none" /><path d="M 117.75023020441432 111.22182372390056 l 1.2277963939416552 0.7762217471538773 a22.452585345420623,22.452585345420623 0 0,0 -0.20933842929738422,0.3248978910663548 l -1.2142531012672209 -0.7972412381416849" fill="#ff0801" stroke="none" /><path d="M 116.93607887273984 112.41649034213515 l 3.8627571632996425 2.8319357374582355 a25.7896506055991,25.7896506055991 0 0,0 -0.2655581609205191,0.35575855344746926 l -3.8134377356840314 -2.89800717041502" fill="#ff3805" stroke="none" /><path d="M 116.71984013943494 112.70617746262583 l 1.6275971271373844 1.2368861043288957 a23.04425038665712,23.04425038665712 0 0,0 -0.242725289897545,0.3137551568909265 l -1.606065020021771 -1.2647192553330748" fill="#ff1001" stroke="none" /><path d="M 116.27256486870786 113.27417163493432 l 1.9121016470039118 1.559776571828531 a23.46759714347789,23.46759714347789 0 0,0 -0.25803628825313807,0.31082133181178145 l -1.8849693588572303 -1.592459160754083" fill="#ff1602" stroke="none" /><line stroke="#e1ed5e" stroke-width="0.3" x1="143.8653032363475" x2="146.44561519142675" y1="172.8068346515853" y2="177.08958963109032" /><path d="M 144.38136562736335 173.6633856474863 a86.0,86.0 0 0,1 -40.68145358897372,12.25698825130547" fill="none" id="id18" stroke="none" /><text fill="#e1ed5e" style="font-size:6.75px; font-family:Arial;" text-anchor="middle"><textPath startOffset="21.466115282336833" xlink:href="#id18">June</textPath></text><path d="M 109.57404056367764 118.69057910512821 l 0.8525694381447652 1.664398267405961 a22.870052469692347,22.870052469692347 0 0,0 -0.35192228984149115,0.176461141913419 l -0.8237932406205135 -1.678827250228682" fill="#ff0e01" stroke="none" /><path d="M 109.2508944713604 118.85261126421891 l 0.8572611734825838 1.747032322723991 a22.946026376029657,22.946026376029657 0 0,0 -0.3560866340800283,0.17094322370753037 l -0.8270618714023228 -1.7615298229310814" fill="#ff0f01" stroke="none" /><path d="M 108.59647513512805 119.15986991738527 l 0.9583740303917072 2.136029182411151 a23.341175228435773,23.341175228435773 0 0,0 -0.36798954987265076,0.1613158044481637 l -0.9214638058613027 -2.152209540153769" fill="#ff1502" stroke="none" /><path d="M 107.59598834532513 119.57807347666477 l 0.8766395981287542 2.259470879162337 a23.423572907669577,23.423572907669577 0 0,0 -0.37715273982266295,0.1426068945238318 l -0.8376166375458165 -2.2742260237928" fill="#ff1602" stroke="none" /><path d="M 104.48393922423573 120.51570834832081 l 0.8431176835509863 3.8575804965313987 a24.948642135663324,24.948642135663324 0 0,0 -0.4203353625400229,0.08808536206444038 l -0.7765908595815852 -3.8715218393223805" fill="#ff2c04" stroke="none" /><path d="M 103.06178313531738 120.77559828337769 l 3.3482179861653276 22.71918969157825 a43.964584558071074,43.964584558071074 0 0,0 -0.7496409871711537,0.10389341007769011 l -2.9566484078073434 -22.773457667148545" fill="#dcff1b" stroke="none" /><path d="M 102.70371172650421 120.8252237178851 l 7.632069589400892 58.78568897403997 a80.27904954003583,80.27904954003583 0 0,0 -1.37190235159136,0.166118269152077 l -6.6190398147581515 -58.90835277191739" fill="#48f4ff" stroke="none" /><path d="M 102.34483914955558 120.86867818915974 l 0.49356669129697045 4.392661410279241 a25.420303422177515,25.420303422177515 0 0,0 -0.43525297595286105,0.04511575059956199 l -0.41788111873850675 -4.400506529334561" fill="#ff3204" stroke="none" /><path d="M 100.90346689309514 120.98055641714683 l 0.11555861653824899 2.683533942746092 a23.68602088892224,23.68602088892224 0 0,0 -0.40748939509412696,0.014034758685933938 l -0.06934886976946972 -2.6851254998581195" fill="#ff1a02" stroke="none" /><line stroke="#e1ed5e" stroke-width="0.3" x1="102.19456741930631" x2="102.32365962044197" y1="184.97166512339345" y2="189.96999836594603" /><path d="M 102.22038585953345 185.97133177190398 a86.0,86.0 0 0,1 -42.740103519485714,-10.115201625700543" fill="none" id="id19" stroke="none" /><text fill="#e1ed5e" style="font-size:6.75px; font-family:Arial;" text-anchor="middle"><textPath startOffset="22.20632615414155" xlink:href="#id19">July</textPath></text><path d="M 96.93821686468263 120.77559828337769 l -0.9930144564163612 6.73805704856186 a27.810836255580224,27.810836255580224 0 0,0 -0.4730015863594882,-0.07387312002041638 l 1.1088519063843665 -6.719965621194338" fill="#ff5407" stroke="none" /><path d="M 95.51606077576429 120.51570834832081 l -1.8777836363587497 8.591566365699757 a29.79437797693504,29.79437797693504 0 0,0 -0.5000913284877451,-0.11381915820622678 l 2.0253951142393576 -8.557970473915843" fill="#ff6f0a" stroke="none" /><path d="M 92.7421414339146 119.70592522655815 l -4.262436685490936 11.573008462815286 a33.333000096416654,33.333000096416654 0 0,0 -0.53670856971423,-0.202937256739173 l 4.461015475965449 -11.49792295596948" fill="#ff9e0e" stroke="none" /><line stroke="#e1ed5e" stroke-width="0.3" x1="58.666819895761336" x2="56.23545636021788" y1="174.27360380694188" y2="178.64263932499728" /><path d="M 58.180547188652646 175.14741091055294 a86.0,86.0 0 0,1 -31.652253787137756,-30.449443065178592" fill="none" id="id20" stroke="none" /><text fill="#e1ed5e" style="font-size:6.75px; font-family:Arial;" text-anchor="middle"><textPath startOffset="22.20632615414155" xlink:href="#id20">August</textPath></text><path d="M 87.65650970185807 116.9893568818739 l -1.0863951838819963 1.4952946895821364 a22.848285882717967,22.848285882717967 0 0,0 -0.31619310846148485,-0.23391210253019049 l 1.1119732627620456 -1.4763726383121791" fill="#ff0d01" stroke="none" /><path d="M 86.51685102203217 116.09983520530335 l -0.8704851153163263 1.0394209044313776 a22.355780274438384,22.355780274438384 0 0,0 -0.2928974738836021,-0.24961358151860252 l 0.888248065776985 -1.0242829326898235" fill="#ff0601" stroke="none" /><path d="M 86.24171649860922 115.8653595955263 l -6.337462574826811 7.3080426539148915 a30.67320625846311,30.67320625846311 0 0,0 -0.3959146246299971,-0.34934862403189404 l 6.462319552363397 -7.1978708881107085" fill="#ff7b0b" stroke="none" /><path d="M 85.70375840098266 115.38237550388516 l -5.153189765592243 5.544695049261507 a28.569610818893512,28.569610818893512 0 0,0 -0.3573434755963692,-0.3378905604315178 l 5.2478690755794295 -5.455169852084058" fill="#ff5e08" stroke="none" /><path d="M 85.44109423537348 115.13401014063109 l -3.18767809882404 3.3135974263865444 a25.59795819531648,25.59795819531648 0 0,0 -0.31491589137344955,-0.30821148071800647 l 3.244243942573284 -3.258235842745968" fill="#ff3505" stroke="none" /><path d="M 83.95833913139862 113.55231037782056 l -7.929233195668352 6.698772041500245 a31.380090844268864,31.380090844268864 0 0,0 -0.3450375476021855,-0.4156199532895674 l 8.043366743164073 -6.561290831096916" fill="#ff840c" stroke="none" /><path d="M 83.50135304334701 112.99209946851258 l -9.54761366554016 7.51840722184845 a33.1525048389191,33.1525048389191 0 0,0 -0.3491956220244716,-0.45138241351018316 l 9.6756161047827 -7.352946814225014" fill="#ff9c0e" stroke="none" /><path d="M 83.06392112726016 112.41649034213515 l -2.6362724867027136 1.9327526823855312 a24.268863037114613,24.268863037114613 0 0,0 -0.24409877569082353,-0.33903184995230734 l 2.6691510547691446 -1.8870872269820855" fill="#ff2203" stroke="none" /><line stroke="#e1ed5e" stroke-width="0.3" x1="26.63291911575756" x2="22.317208475507996" y1="142.92168965132927" y2="145.44649492493687" /><path d="M 25.769776987707644 143.4266507060508 a86.0,86.0 0 0,1 -11.730757126820373,-40.83630448921669" fill="none" id="id21" stroke="none" /><text fill="#e1ed5e" style="font-size:6.75px; font-family:Arial;" text-anchor="middle"><textPath startOffset="21.46611528233685" xlink:href="#id21">September</textPath></text><path d="M 81.87401531095188 110.60418214915194 l -21.123827203879003 12.357999590085004 a45.47317367257217,45.47317367257217 0 0,0 -0.389440929220399,-0.6790230861693886 l 21.33342012925178 -11.992556658057309" fill="#caff1d" stroke="none" /><path d="M 81.18737489456691 109.33194174019688 l -3.9227572552631473 1.9458710287315635 a25.378862699854437,25.378862699854437 0 0,0 -0.19076051561877164,-0.3930231635730168 l 3.955671027496638 -1.8780589091932618" fill="#ff3204" stroke="none" /><path d="M 80.73074385275274 108.34839909993369 l -6.56092376451653 2.8425181352030577 a28.15021887726215,28.15021887726215 0 0,0 -0.1888062241944849,-0.4462821415387596 l 6.608880969903321 -2.7291614679981397" fill="#ff5808" stroke="none" /><path d="M 80.58989483394504 108.01547362559985 l -12.775277750781166 5.275597478481434 a34.82170938648921,34.82170938648921 0 0,0 -0.22401532881922254,-0.5559876747659024 l 12.864195693857775 -5.054910435872727" fill="#ffb210" stroke="none" /><path d="M 79.86692584326677 105.97154293290107 l -60.399222470199675 17.914628798703227 a84.0,84.0 0 0,0 -0.3992294524555837,-1.389770097981616 l 60.698644559541364 -16.872301225217015" fill="#4dd2ff" stroke="none" /><path d="M 79.23777060512086 103.15116336523772 l -3.8622827695226696 0.5861935025393054 a24.906513920898146,24.906513920898146 0 0,0 -0.060684067649097194,-0.42442422779888517 l 3.871800888188366 -0.5196238027600196" fill="#ff2b04" stroke="none" /><path d="M 79.18660465613746 102.79330883721812 l -6.316402243475115 0.8477070614682858 a27.373032603356165,27.373032603356165 0 0,0 -0.058654531166087966,-0.46753432410170337 l 6.330058283888051 -0.7388549830791737" fill="#ff4e07" stroke="none" /><path d="M 79.0235259727143 100.99374915477108 l -11.034002876340475 0.522729941068358 a32.046377961412475,32.046377961412475 0 0,0 -0.021360997204955063,-0.5512324224024474 l 11.04136600639663 -0.33272027165191387" fill="#ff8d0d" stroke="none" /><line stroke="#e1ed5e" stroke-width="0.3" x1="15.007084014347285" x2="10.007500721073583" y1="101.09737516637583" y2="101.16192664675087" /><path d="M 14.007167355692545 101.11028546245083 a86.0,86.0 0 0,1 10.666146001902534,-42.60595125391555" fill="none" id="id22" stroke="none" /><text fill="#e1ed5e" style="font-size:6.75px; font-family:Arial;" text-anchor="middle"><textPath startOffset="22.20632615414155" xlink:href="#id22">October</textPath></text><path d="M 79.16333360222342 97.38593545837743 l -10.208246565120886 -1.2806758465389794 a31.288266547782026,31.288266547782026 0 0,0 0.07164119229344268,-0.5338100958410571 l 10.18468937376961 1.4562042844446959" fill="#ff830c" stroke="none" /><path d="M 79.54389044137918 95.25157060432595 l -7.311001786651773 -1.6970859339640403 a28.505387917468624,28.505387917468624 0 0,0 0.11506294815442954,-0.47701020435601266 l 7.280706038236529 1.8226813699794497" fill="#ff5d08" stroke="none" /><path d="M 79.91906864156998 93.8553929516997 l -10.101537801656201 -3.0909911132519037 a31.5638672852555,31.5638672852555 0 0,0 0.1634474989685584,-0.5181732377871702 l 10.04683481891944 3.264414517465488" fill="#ff870c" stroke="none" /><path d="M 80.2630227832202 92.82701384747504 l -1.5585297073635311 -0.5664145976574901 a22.658264256737795,22.658264256737795 0 0,0 0.1363762206937732,-0.36542046946819795 l 1.5485488981681303 0.5931582041550295" fill="#ff0b01" stroke="none" /><path d="M 80.52162464483688 92.15188598940014 l -14.97260244546124 -6.032674126295576 a37.14224213372814,37.14224213372814 0 0,0 0.2440392340417203,-0.5909603622504302 l 14.86654152453332 6.289509058999317" fill="#ffcf13" stroke="none" /><line stroke="#e1ed5e" stroke-width="0.3" x1="26.266209847984243" x2="21.928928074336255" y1="57.711370442889674" y2="55.22380399835377" /><path d="M 25.398753493254645 57.213857153982495 a86.0,86.0 0 0,1 29.58750427330803,-30.492523968695096" fill="none" id="id23" stroke="none" /><text fill="#e1ed5e" style="font-size:6.75px; font-family:Arial;" text-anchor="middle"><textPath startOffset="21.46611528233685" xlink:href="#id23">November</textPath></text><line stroke="#e1ed5e" stroke-width="0.3" x1="56.762969772571076" x2="54.21961505331055" y1="26.818313649435495" y2="22.513508569990535" /><path d="M 56.25429882871897 25.957352633546506 a86.0,86.0 0 0,1 42.265352541879196,-11.944610805530505" fill="none" id="id24" stroke="none" /><text fill="#e1ed5e" style="font-size:6.75px; font-family:Arial;" text-anchor="middle"><textPath startOffset="22.20632615414155" xlink:href="#id24">December</textPath></text></svg>