<?xml version="1.0" encoding="utf-8" ?>
<svg baseProfile="full" height="200mm" version="1.1" viewBox="0,0,200,200" width="200mm" xmlns="http://www.w3.org/2000/svg" xmlns:ev="http://www.w3.org/2001/xml-events" xmlns:xlink="http://www.w3.org/1999/xlink"><defs /><rect fill="#1a1a1a" height="200" width="200" x="0" y="0" /><text alignment-baseline="middle" fill="#e1ed5e" style="dominant-baseline: central; font-size:9.0px; font-family:Arial;" text-anchor="middle" x="100.0" y="100.0">2025</text><line stroke="#e1ed5e" stroke-width="0.3" x1="100.0" x2="100.0" y1="15.0" y2="10.0" /><path d="M 100.0 14.0 a86.0,86.0 0 0,1 42.46469731375804,11.215312516191453" fill="none" id="id37" stroke="none" /><text fill="#e1ed5e" style="font-size:6.75px; font-family:Arial;" text-anchor="middle"><textPath startOffset="22.20632615414155" xlink:href="#id37">January</textPath></text><line stroke="#e1ed5e" stroke-width="0.3" x1="143.23703022742887" x2="145.7803849466894" y1="26.81831364943548" y2="22.513508569990506" /><path d="M 143.74570117128098 25.957352633546492 a86.0,86.0 0 0,1 28.547481713284135,27.462654790039103" fill="none" id="id38" stroke="none" /><text fill="#e1ed5e" style="font-size:6.75px; font-family:Arial;" text-anchor="middle"><textPath startOffset="19.985693538727396" xlink:href="#id38">February</textPath></text><path d="M 113.34407831869373 83.78471172551755 l 3.605187076291489 -4.3809056219049305 a26.67359744105073,26.67359744105073 0 0,0 0.352018404427323,0.2948052902005265 l -3.6800630176779294 4.318199174310585" fill="red" stroke="none" /><path d="M 113.89432698308785 84.25364557470407 l 8.274414728105752 -9.377342790999016 a33.50601842764493,33.50601842764493 0 0,0 0.42917860983060807,0.3853207934509732 l -8.43460432553235 9.233522988778747" fill="red" stroke="none" /><path d="M 114.42810811169701 84.74124197986012 l 40.684179472715364 -43.026434582842164 a80.21550922080895,80.21550922080895 0 0,0 0.9951182987706335,0.9573030149861547 l -41.41878101509842 42.31974848109371" fill="red" stroke="none" /><path d="M 116.38621287248628 86.86637796730983 l 4.844106530204134 -3.8825727914600296 a27.20803830182708,27.20803830182708 0 0,0 0.2897603210117504,0.3679661820636166 l -4.910220931809849 3.798614215443375" fill="red" stroke="none" /><path d="M 116.82858285166822 87.43820079747576 l 13.32925405958644 -9.949703697085688 a37.63326839333756,37.63326839333756 0 0,0 0.38303030804597554,0.5224529097165926 l -13.498546980146042 9.718788343697602" fill="red" stroke="none" /><path d="M 117.2510076193507 88.02491185347247 l 10.537618748086256 -7.314872043838536 a33.827656134218344,33.827656134218344 0 0,0 0.32792777012846897,0.48119353850203167 l -10.661970983883458 7.132400482066098" fill="red" stroke="none" /><path d="M 117.45458315368197 88.32363383020206 l 8.726760582643324 -5.837827872595627 a31.499361148985763,31.499361148985763 0 0,0 0.2975990112397445,0.45326371121271225 l -8.825956229240994 5.686746097405241" fill="red" stroke="none" /><line stroke="#e1ed5e" stroke-width="0.3" x1="172.23445277983987" x2="176.4835382374775" y1="55.19839476539836" y2="52.563006222186495" /><path d="M 173.08426987136738 54.67131705675599 a86.0,86.0 0 0,1 12.851231095245387,41.99856678651699" fill="none" id="id39" stroke="none" /><text fill="#e1ed5e" style="font-size:6.75px; font-family:Arial;" text-anchor="middle"><textPath startOffset="22.20632615414155" xlink:href="#id39">March</textPath></text><path d="M 117.84615892207809 88.93136811851018 l 38.74857337780776 -24.032829502669713 a66.59636863522954,66.59636863522954 0 0,0 0.5958288360984026,0.9793859439019056 l -39.156518012192386 23.362275785560726" fill="red" stroke="none" /><path d="M 118.3937258080291 89.86733742301442 l 18.542291663795417 -10.214503945213666 a42.16961669449975,42.16961669449975 0 0,0 0.3447705545479724,0.6388074760048282 l -18.715370317561856 9.89381548587638" fill="red" stroke="none" /><path d="M 118.73160827565052 90.50648371742162 l 23.695647695844258 -12.00938082391787 a47.56518299390116,47.56518299390116 0 0,0 0.3638509704766217,0.7335013539937002 l -23.898858679274287 11.59971988142522" fill="red" stroke="none" /><path d="M 119.196687751892 91.48605970444005 l 57.59006325567602 -25.541820886679833 a84.0,84.0 0 0,0 0.574837160629277,1.3268034216535889 l -58.02119112614798 24.54671832043964" fill="red" stroke="none" /><path d="M 119.47837535516314 92.15188598940014 l 14.991134243845277 -6.04014085100374 a37.16222161142937,37.16222161142937 0 0,0 0.23395644751222056,0.5953936400689904 l -15.092884241239199 5.781198206038966" fill="red" stroke="none" /><path d="M 119.97218684219823 93.5106431181261 l 37.12920977876171 -12.064011562683111 a60.03996149818601,60.03996149818601 0 0,0 0.3109055508426555,0.9856555587744681 l -37.33137081337257 11.423105837482224" fill="red" stroke="none" /><path d="M 120.6074358757038 95.95851677861258 l 49.155579694793545 -9.640279934501843 a71.09197552848917,71.09197552848917 0 0,0 0.225172918480736,1.2028827343698671 l -49.314238337184136 8.792719122669414" fill="red" stroke="none" /><path d="M 120.96714384426684 98.82574320788733 l 40.57722694542443 -2.2725119214933263 a61.6408127011974,61.6408127011974 0 0,0 0.050211994803445195,1.0598958497683004 l -40.61033254846137 1.573704965102026" fill="red" stroke="none" /><line stroke="#e1ed5e" stroke-width="0.3" x1="184.98032266829074" x2="189.97916517819016" y1="98.17113171792111" y2="98.06355123074" /><path d="M 185.9800911702706 98.14961562048488 a86.0,86.0 0 0,1 -9.607161424134198,41.387399972396054" fill="none" id="id40" stroke="none" /><text fill="#e1ed5e" style="font-size:6.75px; font-family:Arial;" text-anchor="middle"><textPath startOffset="21.466115282336823" xlink:href="#id40">April</textPath></text><path d="M 120.95626037817324 101.35467743843564 l 32.78297457387526 2.119192795785893 a53.851398752824245,53.851398752824245 0 0,0 -0.06775901313279098,0.9245178994103553 l -32.74163900207813 -2.683183831693019" fill="red" stroke="none" /><line stroke="#e1ed5e" stroke-width="0.3" x1="174.80103733775053" x2="179.2010983576182" y1="140.37084112569926" y2="142.7455964860345" /><path d="M 175.68104954172406 140.8457921977663 a86.0,86.0 0 0,1 -30.038265399797805,32.042727171017184" fill="none" id="id41" stroke="none" /><text fill="#e1ed5e" style="font-size:6.75px; font-family:Arial;" text-anchor="middle"><textPath startOffset="22.206326154141568" xlink:href="#id41">May</textPath></text><line stroke="#e1ed5e" stroke-width="0.3" x1="143.8653032363475" x2="146.44561519142675" y1="172.8068346515853" y2="177.08958963109032" /><path d="M 144.38136562736335 173.6633856474863 a86.0,86.0 0 0,1 -40.68145358897372,12.25698825130547" fill="none" id="id42" stroke="none" /><text fill="#e1ed5e" style="font-size:6.75px; font-family:Arial;" text-anchor="middle"><textPath startOffset="21.466115282336833" xlink:href="#id42">June</textPath></text><line stroke="#e1ed5e" stroke-width="0.3" x1="102.19456741930631" x2="102.32365962044197" y1="184.97166512339345" y2="189.96999836594603" /><path d="M 102.22038585953345 185.97133177190398 a86.0,86.0 0 0,1 -42.740103519485714,-10.115201625700543" fill="none" id="id43" stroke="none" /><text fill="#e1ed5e" style="font-size:6.75px; font-family:Arial;" text-anchor="middle"><textPath startOffset="22.20632615414155" xlink:href="#id43">July</textPath></text><line stroke="#e1ed5e" stroke-width="0.3" x1="58.666819895761336" x2="56.23545636021788" y1="174.27360380694188" y2="178.64263932499728" /><path d="M 58.180547188652646 175.14741091055294 a86.0,86.0 0 0,1 -31.652253787137756,-30.449443065178592" fill="none" id="id44" stroke="none" /><text fill="#e1ed5e" style="font-size:6.75px; font-family:Arial;" text-anchor="middle"><textPath startOffset="22.20632615414155" xlink:href="#id44">August</textPath></text><line stroke="#e1ed5e" stroke-width="0.3" x1="26.63291911575756" x2="22.317208475507996" y1="142.92168965132927" y2="145.44649492493687" /><path d="M 25.769776987707644 143.4266507060508 a86.0,86.0 0 0,1 -11.730757126820373,-40.83630448921669" fill="none" id="id45" stroke="none" /><text fill="#e1ed5e" style="font-size:6.75px; font-family:Arial;" text-anchor="middle"><textPath startOffset="21.46611528233685" xlink:href="#id45">September</textPath></text><line stroke="#e1ed5e" stroke-width="0.3" x1="15.007084014347285" x2="10.007500721073583" y1="101.09737516637583" y2="101.16192664675087" /><path d="M 14.007167355692545 101.11028546245083 a86.0,86.0 0 0,1 10.666146001902534,-42.60595125391555" fill="none" id="id46" stroke="none" /><text fill="#e1ed5e" style="font-size:6.75px; font-family:Arial;" text-anchor="middle"><textPath startOffset="22.20632615414155" xlink:href="#id46">October</textPath></text><line stroke="#e1ed5e" stroke-width="0.3" x1="26.266209847984243" x2="21.928928074336255" y1="57.711370442889674" y2="55.22380399835377" /><path d="M 25.398753493254645 57.213857153982495 a86.0,86.0 0 0,1 29.58750427330803,-30.492523968695096" fill="none" id="id47" stroke="none" /><text fill="#e1ed5e" style="font-size:6.75px; font-family:Arial;" text-anchor="middle"><textPath startOffset="21.46611528233685" xlink:href="#id47">November</textPath></text><line stroke="#e1ed5e" stroke-width="0.3" x1="56.762969772571076" x2="54.21961505331055" y1="26.818313649435495" y2="22.513508569990535" /><path d="M 56.25429882871897 25.957352633546506 a86.0,86.0 0 0,1 42.265352541879196,-11.944610805530505" fill="none" id="id48" stroke="none" /><text fill="#e1ed5e" style="font-size:6.75px; font-family:Arial;" text-anchor="middle"><textPath startOffset="22.20632615414155" xlink:href="#id48">December</textPath></text></svg>