<?xml version="1.0" encoding="utf-8" ?>
<svg baseProfile="full" height="200mm" version="1.1" viewBox="0,0,200,200" width="200mm" xmlns="http://www.w3.org/2000/svg" xmlns:ev="http://www.w3.org/2001/xml-events" xmlns:xlink="http://www.w3.org/1999/xlink"><defs /><rect fill="#1a1a1a" height="200" width="200" x="0" y="0" /><text alignment-baseline="middle" fill="#e1ed5e" style="dominant-baseline: central; font-size:9.0px; font-family:Arial;" text-anchor="middle" x="100.0" y="100.0">2024</text><line stroke="#e1ed5e" stroke-width="0.3" x1="100.0" x2="100.0" y1="15.0" y2="10.0" /><path d="M 100.0 14.0 a86.0,86.0 0 0,1 42.35913384403234,11.155469271406648" fill="none" id="id25" stroke="none" /><text fill="#e1ed5e" style="font-size:6.75px; font-family:Arial;" text-anchor="middle"><textPath startOffset="22.145653131862478" xlink:href="#id25">January</textPath></text><path d="M 102.51750503828377 79.15144685158666 l 0.21279136320226702 -1.7622177424797365 a22.775018742482416,22.775018742482416 0 0,0 0.38774163368049314,0.05020091733788343 l -0.24301081877355185 1.758305228941456" fill="#ff1101" stroke="none" /><line stroke="#e1ed5e" stroke-width="0.3" x1="143.13028292997686" x2="145.6673583964461" y1="26.7553504044142" y2="22.446841604673864" /><path d="M 143.63769802327073 25.89364864446614 a86.0,86.0 0 0,1 29.32050498858742,28.57503671076993" fill="none" id="id26" stroke="none" /><text fill="#e1ed5e" style="font-size:6.75px; font-family:Arial;" text-anchor="middle"><textPath startOffset="20.669276256404974" xlink:href="#id26">February</textPath></text><path d="M 110.96478420261332 82.08984904055464 l 0.8230943625558923 -1.3444627832922569 a22.57640873675873,22.57640873675873 0 0,0 0.3287940778479119,0.20519182208195375 l -0.8460525691935168 1.3301351643687578" fill="#ff0e01" stroke="none" /><path d="M 111.27062007382361 82.28071324371311 l 2.7939056830552955 -4.392483789162211 a26.205749014681892,26.205749014681892 0 0,0 0.3775055044956212,0.24469450712194854 l -2.868896819807924 4.343875440336367" fill="#ff4206" stroke="none" /><path d="M 111.8722381534696 82.67804972795209 l 1.0290866297130083 -1.5014681473778069 a22.820281815830786,22.820281815830786 0 0,0 0.3212279678837021,0.22424206940403238 l -1.0547096887704712 1.4835812621686477" fill="#ff1202" stroke="none" /><path d="M 112.45986205192187 83.09580414077388 l 0.833577953077143 -1.130908586630408 a22.40492221676884,22.40492221676884 0 0,0 0.30763773118533627,0.23085708873040595 l -0.8528686731732457 1.1164324706359874" fill="#ff0c01" stroke="none" /><path d="M 112.7482090630111 83.31218511350987 l 1.0179043543110025 -1.332469474961847 a22.676783878808,22.676783878808 0 0,0 0.3073136752173801,0.23896897261918162 l -1.0406279741636084 1.3147994507218745" fill="#ff1001" stroke="none" /><line stroke="#e1ed5e" stroke-width="0.3" x1="172.87174338648825" x2="177.1583165268699" y1="56.24261187166439" y2="53.66864786411523" /><path d="M 173.72905801456457 55.72781907015455 a86.0,86.0 0 0,1 12.242430191666344,42.057860355516425" fill="none" id="id27" stroke="none" /><text fill="#e1ed5e" style="font-size:6.75px; font-family:Arial;" text-anchor="middle"><textPath startOffset="22.145653131862474" xlink:href="#id27">March</textPath></text><path d="M 120.26092885502905 94.47779374421319 l 2.196721363327529 -0.5987261759609204 a23.276852604337915,23.276852604337915 0 0,0 0.10176475823028715,0.3864173626053807 l -2.2066756023625462 0.5609283089827412" fill="#ff1902" stroke="none" /><path d="M 120.35273937422433 94.82641323984039 l 1.1465754614864379 -0.2914549986613881 a22.18303901251292,22.18303901251292 0 0,0 0.09064673557377823,0.3698696144153713 l -1.1514097235765075 0.2717295596379219" fill="#ff0901" stroke="none" /><path d="M 120.43855184770803 95.1765574152323 l 1.6605584874527002 -0.3918872815724954 a22.70617412115806,22.70617412115806 0 0,0 0.08627171764041966,0.3801291061238751 l -1.6670410666507862 0.36332384150959396" fill="#ff1001" stroke="none" /><path d="M 120.77682067341334 96.94652285012252 l 4.587291723928561 -0.6741739113512198 a25.636567245621492,25.636567245621492 0 0,0 0.06025262715583105,0.4359579952869601 l -4.598188867639605 0.595327607864174" fill="#ff3a05" stroke="none" /><path d="M 120.86939407059847 97.66154086499901 l 2.8808751518084885 -0.32280806969067477 a23.898904394795558,23.898904394795558 0 0,0 0.04218453372497465,0.40809709706506014 l -2.885992078015129 0.27330645034268325" fill="#ff2103" stroke="none" /><path d="M 120.93736805541906 98.37931529534042 l 0.6217100537454874 -0.04812429012908366 a21.623569834283735,21.623569834283735 0 0,0 0.025470545865273714,0.3703361468646724 l -0.6224445607758272 0.037444719110077115" fill="#ff0100" stroke="none" /><path d="M 120.98066250479742 99.09900007780936 l 5.669315605632981 -0.24346480566957807 a26.67454091075863,26.67454091075863 0 0,0 0.01571932347552465,0.4576509517035442 l -5.672659616105354 0.1461075894019139" fill="#ff4806" stroke="none" /><path d="M 120.99303781780057 99.45929381324524 l 1.0924119680043802 -0.028136657243767963 a22.092774258170486,22.092774258170486 0 0,0 0.006510602127234212,0.3792099341027035 l -1.0927340017302805 0.009379807171998083" fill="#ff0701" stroke="none" /><line stroke="#e1ed5e" stroke-width="0.3" x1="184.99686870605535" x2="189.99668451229388" y1="99.2704041080226" y2="99.22748670261217" /><path d="M 185.99683186730306 99.26182062694052 a86.0,86.0 0 0,1 -10.086455211305974,41.156179273409016" fill="none" id="id28" stroke="none" /><text fill="#e1ed5e" style="font-size:6.75px; font-family:Arial;" text-anchor="middle"><textPath startOffset="21.40746469413373" xlink:href="#id28">April</textPath></text><path d="M 120.93736805541906 101.62068470465957 l 0.5750199895783759 0.04451018387394568 a21.576740101677704,21.576740101677704 0 0,0 -0.03175518431120179,0.36904337670325 l -0.5741711825694332 -0.05437460795285304" fill="#ff0000" stroke="none" /><path d="M 120.43855184770803 104.8234425847677 l 0.7830859696792336 0.18480615661175132 a21.804597384677624,21.804597384677624 0 0,0 -0.08910030642359491,0.3635596557623969 l -0.7797981367393428 -0.19822163698224782" fill="#ff0300" stroke="none" /><path d="M 119.4528033332814 107.91128576633889 l 7.269054403782213 2.956261144171273 a28.84720535462673,28.84720535462673 0 0,0 -0.1904934209540683,0.4571148635948224 l -7.217235138291659 -3.080608517207373" fill="#ff6609" stroke="none" /><path d="M 119.0197475246899 108.90220220490707 l 1.8868055006448843 0.8831202446965992 a23.083251392380856,23.083251392380856 0 0,0 -0.17105870049429542,0.35744689354716885 l -1.8713675421906768 -0.9153796403088715" fill="#ff1602" stroke="none" /><line stroke="#e1ed5e" stroke-width="0.3" x1="174.33088141563837" x2="178.70328620479359" y1="141.23008692659167" y2="143.65538615756765" /><path d="M 175.20536237346943 141.71514677278685 a86.0,86.0 0 0,1 -30.301960400862466,31.631185727798858" fill="none" id="id29" stroke="none" /><text fill="#e1ed5e" style="font-size:6.75px; font-family:Arial;" text-anchor="middle"><textPath startOffset="22.145653131862474" xlink:href="#id29">May</textPath></text><path d="M 117.81537515405839 111.11811171558189 l 1.1971197244442706 0.7470912466452342 a22.411113377963463,22.411113377963463 0 0,0 -0.20648352140963191,0.3246263916572553 l -1.1841185114087487 -0.7675313129811614" fill="#ff0c01" stroke="none" /><path d="M 117.62189284568427 111.42229804090321 l 19.396141356458582 12.572344489724752 a44.11437097322865,44.11437097322865 0 0,0 -0.4173546383221624,0.6319281163410685 l -19.177462279215693 -12.903452484404882" fill="#d7ff1c" stroke="none" /><path d="M 117.01052211995028 112.31430620078461 l 1.9119902903959562 1.3841335217599837 a23.36040938750635,23.36040938750635 0 0,0 -0.23794020903250437,0.32281159129287773 l -1.8879480617796238 -1.4167514223217388" fill="#ff1a02" stroke="none" /><path d="M 116.1254893667686 113.45245675266167 l 2.104176224931405 1.7553786444585253 a23.740239363812517,23.740239363812517 0 0,0 -0.26374890034380294,0.310695541417823 l -2.073732761080487 -1.791240968325905" fill="#ff1f03" stroke="none" /><path d="M 112.45986205192187 116.90419585922612 l 3.3880511783469935 4.596542117496834 a26.710261835066824,26.710261835066824 0 0,0 -0.37142398446299907,0.2688823213502984 l -3.3086461835100267 -4.654025210220209" fill="#ff4906" stroke="none" /><line stroke="#e1ed5e" stroke-width="0.3" x1="143.1302829299769" x2="145.66735839644613" y1="173.24464959558577" y2="177.55315839532614" /><path d="M 143.63769802327073 174.10635135553383 a86.0,86.0 0 0,1 -40.68552437913181,11.842963189579606" fill="none" id="id30" stroke="none" /><text fill="#e1ed5e" style="font-size:6.75px; font-family:Arial;" text-anchor="middle"><textPath startOffset="21.407464694133747" xlink:href="#id30">June</textPath></text><path d="M 102.51750503828377 120.84855314841334 l 1.2144047471792168 10.057013404235947 a31.130068978193236,31.130068978193236 0 0,0 -0.531085052170349,0.0595091878331003 l -1.0415837934080685 -10.07637835257602" fill="#ff850c" stroke="none" /><path d="M 101.44090949804482 120.95050786540614 l 4.322728494134449 62.8515235962184 a84.0,84.0 0 0,0 -1.4394225914701395,0.08659208870123303 l -3.2431615505318443 -62.916467662744324" fill="#4dd2ff" stroke="none" /><path d="M 101.08105385017728 120.97215588758144 l 2.260700462449531 43.85698502053713 a64.91521264519321,64.91521264519321 0 0,0 -1.113370825710375,0.0478129337958172 l -1.5075038761383264 -43.889330522758776" fill="#35ff6a" stroke="none" /><path d="M 100.72087961077811 120.9876233191556 l 0.8890788007095711 25.8845592125959 a46.89982368172136,46.89982368172136 0 0,0 -0.8048605727296193,0.02073035331651362 l -0.4446049139092079 -25.89600728326246" fill="#b7ff1f" stroke="none" /><line stroke="#e1ed5e" stroke-width="0.3" x1="101.45913802915013" x2="101.54496967792366" y1="184.9874750549273" y2="189.98673829345242" /><path d="M 101.47630435890484 185.9873277026323 a86.0,86.0 0 0,1 -42.54439059252881,-10.42667462771756" fill="none" id="id31" stroke="none" /><text fill="#e1ed5e" style="font-size:6.75px; font-family:Arial;" text-anchor="middle"><textPath startOffset="22.145653131862474" xlink:href="#id31">July</textPath></text><path d="M 93.61358852112213 120.00534299687104 l -0.4856108977942127 1.521169220856194 a22.596801096735827,22.596801096735827 0 0,0 -0.36851859892993105,-0.12113938317772896 l 0.5116522343718873 -1.5126089162764436" fill="#ff0f01" stroke="none" /><path d="M 93.27111125876986 119.89276391827306 l -0.5041982764386452 1.4905726141283393 a22.573538248646372,22.573538248646372 0 0,0 -0.3660075941992865,-0.12731644060202627 l 0.5297116426829536 -1.4816977409577226" fill="#ff0e01" stroke="none" /><path d="M 91.26138138417905 119.09545874513695 l -1.2258536232845407 2.6787113982325352 a23.945880489894446,23.945880489894446 0 0,0 -0.372314296963573,-0.17426189022987973 l 1.2716566341196036 -2.6572732764321287" fill="#ff2203" stroke="none" /><line stroke="#e1ed5e" stroke-width="0.3" x1="58.13341422392154" x2="55.67067388415222" y1="173.97424548756322" y2="178.32567169271397" /><path d="M 57.64086615596768 174.84453072859336 a86.0,86.0 0 0,1 -31.369924170532247,-30.572349798747897" fill="none" id="id32" stroke="none" /><text fill="#e1ed5e" style="font-size:6.75px; font-family:Arial;" text-anchor="middle"><textPath startOffset="22.145653131862474" xlink:href="#id32">August</textPath></text><path d="M 89.03521579738668 117.91015095944536 l -11.650474257736112 19.03017413288023 a43.313248933266436,43.313248933266436 0 0,0 -0.6307973915454093,-0.39366422589769445 l 11.975435778071233 -18.82737411014099" fill="#e1ff1b" stroke="none" /><path d="M 87.2517909369889 116.68781488649013 l -1.2189241890820255 1.5956108915005016 a23.007921884886038,23.007921884886038 0 0,0 -0.3118012268118123,-0.24245851988172468 l 1.2461353605290661 -1.574451319997984" fill="#ff1502" stroke="none" /><path d="M 86.96720088162412 116.46651593811092 l -3.726329859215928 4.708096047526912 a27.004307005177427,27.004307005177427 0 0,0 -0.3610208756568366,-0.2908128621022586 l 3.8066015052280266 -4.643434891631243" fill="#ff4d07" stroke="none" /><path d="M 86.40962598614128 116.0094264158162 l -1.47651115495624 1.739326427903961 a23.281521775814415,23.281521775814415 0 0,0 -0.30246080394237773,-0.26125843864861925 l 1.5061514386614803 -1.7137238567906194" fill="#ff1902" stroke="none" /><path d="M 84.58840730492382 114.26474011684316 l -1.543329027124669 1.4284823069420567 a23.102956534789076,23.102956534789076 0 0,0 -0.266896684413807,-0.2933662095882158 l 1.5676234123803559 -1.401778521796167" fill="#ff1602" stroke="none" /><path d="M 84.1078160697243 113.72728997021213 l -1.7604202852177517 1.5206091139299043 a23.326226914549146,23.326226914549146 0 0,0 -0.2591493120014779,-0.3052772379160641 l 1.7862641607263419 -1.4901650935642858" fill="#ff1902" stroke="none" /><path d="M 82.576782715395 111.72311816256416 l -2.51268369217164 1.690645725603366 a24.028508264212967,24.028508264212967 0 0,0 -0.22732749339478414,-0.34420279901768674 l 2.5413356244871506 -1.6472630482466184" fill="#ff2303" stroke="none" /><line stroke="#e1ed5e" stroke-width="0.3" x1="26.387840678322732" x2="22.057713659400548" y1="142.50000000000003" y2="145.00000000000006" /><path d="M 25.521815274538298 143.00000000000003 a86.0,86.0 0 0,1 -11.493303480769221,-40.785679425670985" fill="none" id="id33" stroke="none" /><text fill="#e1ed5e" style="font-size:6.75px; font-family:Arial;" text-anchor="middle"><textPath startOffset="21.40746469413373" xlink:href="#id33">September</textPath></text><path d="M 81.81346652052679 110.50000000000001 l -2.608271917099372 1.5058864934570653 a24.011772986914128,24.011772986914128 0 0,0 -0.2030328442455671,-0.35873958155052865 l 2.633738126366317 -1.460890141807415" fill="#ff2303" stroke="none" /><path d="M 81.4637452351635 109.86951160357371 l -1.2438790388209113 0.662295526406647 a22.40920914967094,22.40920914967094 0 0,0 -0.17787782599537547,-0.3411041854166316 l 1.255064933791236 -0.6408450978855126" fill="#ff0c01" stroke="none" /><path d="M 81.29705330413844 109.54985784667822 l -5.020008800026881 2.563252262272571 a26.636554844263717,26.636554844263717 0 0,0 -0.20444201054946445,-0.4090209713724819 l 5.063270723788082 -2.4766994347363367" fill="#ff4806" stroke="none" /><path d="M 80.9802524753101 108.90220220490708 l -3.8524829716639806 1.8031565540075811 a25.253586557861663,25.253586557861663 0 0,0 -0.18040144294317997,-0.39420971010771827 l 3.8828688794622166 -1.736757861685174" fill="#ff3505" stroke="none" /><path d="M 80.68587082218212 108.24405325689762 l -4.852769847538196 2.0713588843818522 a26.276353174407824,26.276353174407824 0 0,0 -0.1735167183391449,-0.41637695747058634 l 4.887612410413826 -1.9877494174699846" fill="#ff4306" stroke="none" /><path d="M 80.05021161711548 106.5578916946017 l -3.9755459999814113 1.3068409345711298 a25.184829653192462,25.184829653192462 0 0,0 -0.13148314081567505,-0.4118690659101705 l 3.9973938565743414 -1.2384028349695675" fill="#ff3404" stroke="none" /><path d="M 79.73907114497094 105.5222062557868 l -6.076439648570261 1.6561606469447092 a27.298093909366944,27.298093909366944 0 0,0 -0.11934534166000695,-0.4531737014413034 l 6.103974471035001 -1.5516064411306032" fill="#ff5107" stroke="none" /><path d="M 79.48165901384964 104.47187691870673 l -2.7911352427670306 0.6083149352836923 a23.856655912759773,23.856655912759773 0 0,0 -0.08377354376582431,-0.40088673328369506 l 2.801166497357222 -0.5603117507145882" fill="#ff2103" stroke="none" /><path d="M 79.407916724674 104.11899336999214 l -3.143838585485873 0.6288557654318621 a24.206116127857303,24.206116127857303 0 0,0 -0.07800560132479918,-0.4081582681609518 l 3.1541704790928287 -0.5747949322375957" fill="#ff2603" stroke="none" /><path d="M 79.22317932658666 103.0534771498775 l -3.4035732812092565 0.5002080638547793 a24.440133600270038,24.440133600270038 0 0,0 -0.057440695680786746,-0.41561225989563644 l 3.411658493445256 -0.44170749575905727" fill="#ff2904" stroke="none" /><path d="M 79.06263194458094 101.62068470465958 l -6.271322485832903 0.48544002301886374 a27.290082490497397,27.290082490497397 0 0,0 -0.03214516858540446,-0.4673836963370383 l 6.278731615583374 -0.37771290252748213" fill="#ff5107" stroke="none" /><path d="M 79.01933749520258 100.90099992219065 l -6.113280586276583 0.262530572202157 a27.118915085853615,27.118915085853615 0 0,0 -0.0159811934520636,-0.4652750103452686 l 6.116886466725495 -0.1575492972927685" fill="#ff4f07" stroke="none" /><path d="M 79.00696218219943 100.54070618675478 l -3.212113177803014 0.0827326413103454 a24.213178450841777,24.213178450841777 0 0,0 -0.00713547195508286,-0.4156054688951239 l 3.2130600813567627 -0.027580256446169155" fill="#ff2603" stroke="none" /><line stroke="#e1ed5e" stroke-width="0.3" x1="15.003131293944662" x2="10.003315487706104" y1="100.72959589197737" y2="100.7725132973878" /><path d="M 14.003168132696942 100.73817937305945 a86.0,86.0 0 0,1 10.791469493833604,-42.45332614584628" fill="none" id="id34" stroke="none" /><text fill="#e1ed5e" style="font-size:6.75px; font-family:Arial;" text-anchor="middle"><textPath startOffset="22.145653131862435" xlink:href="#id34">October</textPath></text><path d="M 79.00077361379809 99.81974689727619 l -3.5237697524324085 -0.030247325281355212 a24.523899568495708,24.523899568495708 0 0,0 0.00722703952128954,-0.4209388205680716 l 3.5227312813124527 0.09073306181847918" fill="#ff2a04" stroke="none" /><path d="M 79.03789590574601 98.7389718711861 l -9.410286244152664 -0.5660994526460694 a30.427298435245117,30.427298435245117 0 0,0 0.03584051598744848,-0.521113236545463 l 9.399181767000151 0.7275561133458575" fill="#ff7b0b" stroke="none" /><path d="M 79.0935383218832 98.0201363427161 l -1.55908636188409 -0.14764709944640145 a22.566061923995314,22.566061923995314 0 0,0 0.039831901268244305,-0.3853375121823082 l 1.5563220681341818 0.17438913391162242" fill="#ff0e01" stroke="none" /><path d="M 79.34024301695615 96.23510406497455 l -4.229485154294775 -0.7707530866758926 a25.299140029240768,25.299140029240768 0 0,0 0.08152793370721738,-0.42658859958176915 l 4.215630928305398 0.8432442512909762" fill="#ff3505" stroke="none" /><path d="M 79.407916724674 95.88100663000787 l -1.5785013379670978 -0.3157444761016902 a22.609770495490785,22.609770495490785 0 0,0 0.07939505876538956,-0.37993409752720203 l 1.5728485683773414 0.34279502491430136" fill="#ff0f01" stroke="none" /><path d="M 80.05021161711548 93.44210830539832 l -2.687087933329788 -0.883299176033662 a23.828543617451974,23.828543617451974 0 0,0 0.13107353192926086,-0.3874956069085358 l 2.6715289798281625 0.9292964574163595" fill="#ff2003" stroke="none" /><path d="M 80.28708602549916 92.7611449362534 l -2.6585572582717067 -0.9762590500924531 a23.832138490327864,23.832138490327864 0 0,0 0.1443198454787931,-0.3828255363616006 l 2.641406728978478 1.0217528666481985" fill="#ff2003" stroke="none" /><line stroke="#e1ed5e" stroke-width="0.3" x1="26.387840678322718" x2="22.05771365940052" y1="57.49999999999999" y2="54.99999999999999" /><path d="M 25.521815274538284 56.99999999999999 a86.0,86.0 0 0,1 29.574782752854787,-30.34633250058573" fill="none" id="id35" stroke="none" /><text fill="#e1ed5e" style="font-size:6.75px; font-family:Arial;" text-anchor="middle"><textPath startOffset="21.40746469413373" xlink:href="#id35">November</textPath></text><path d="M 82.18462484594161 88.88188828441811 l -2.514976547592722 -1.569531372559088 a23.964546468583116,23.964546468583116 0 0,0 0.220795989041909,-0.34712796801288126 l 2.487662866924923 1.6124730152506412" fill="#ff2203" stroke="none" /><path d="M 82.37810715431573 88.57770195909679 l -3.5990551599870684 -2.332864072152777 a25.28899205219254,25.28899205219254 0 0,0 0.23925260405231322,-0.36225893646776564 l 3.558478117014026 2.3943028869596032" fill="#ff3505" stroke="none" /><path d="M 82.576782715395 88.27688183743585 l -4.762871336950047 -3.204672395694177 a26.74063311282515,26.74063311282515 0 0,0 0.2595245463071448,-0.37865406904715493 l 4.707157053827589 3.285961199811367" fill="#ff4906" stroke="none" /><path d="M 83.8745106332314 86.54754324733833 l -1.8605930263332855 -1.5521728768513097 a23.423024360024662,23.423024360024662 0 0,0 0.26022471058566876,-0.30654405474419005 l 1.8336737522405022 1.5838837140450563" fill="#ff1b02" stroke="none" /><path d="M 84.10781606972428 86.27271002978789 l -2.1746004477497602 -1.878368073675835 a23.8735263575541,23.8735263575541 0 0,0 0.27055405416146655,-0.30784084871304584 l 2.1420353296297012 1.915421200200181" fill="#ff2103" stroke="none" /><path d="M 84.34580500576568 86.00192230759919 l -4.302158189862223 -3.847016381798653 a26.771317018881028,26.771317018881028 0 0,0 0.3092753838224678,-0.3399478238937787 l 4.235485105197889 3.9203017812500893" fill="#ff4a06" stroke="none" /><path d="M 86.13680546590413 84.22622945171909 l -0.827898636464328 -0.9419966730398786 a22.254102820456797,22.254102820456797 0 0,0 0.2891131385184801,-0.2497290431606798 l 0.8116060181829994 0.956069848665269" fill="#ff0a01" stroke="none" /><path d="M 87.54013794807813 83.09580414077388 l -0.7916213360697992 -1.0739863776583367 a22.334208034422147,22.334208034422147 0 0,0 0.3105720411575983,-0.2248302071652388 l 0.7730682845382331 1.087417356196655" fill="#ff0b01" stroke="none" /><line stroke="#e1ed5e" stroke-width="0.3" x1="56.869717070023135" x2="54.33264160355391" y1="26.7553504044142" y2="22.446841604673864" /><path d="M 56.362301976729285 25.89364864446614 a86.0,86.0 0 0,1 42.16139366436587,-11.88097634709845" fill="none" id="id36" stroke="none" /><text fill="#e1ed5e" style="font-size:6.75px; font-family:Arial;" text-anchor="middle"><textPath startOffset="22.145653131862474" xlink:href="#id36">December</textPath></text><path d="M 89.97174638481275 81.54914285379989 l -4.095378934693723 -7.535035967693771 a29.57606527803817,29.57606527803817 0 0,0 0.4481635598332607,-0.23862185269831346 l 3.9654265590739 7.60422828811466" fill="#ff700a" stroke="none" /><path d="M 92.93061703081487 80.22567764915836 l -2.1164331048915095 -5.92004007033466 a27.2869836584684,27.2869836584684 0 0,0 0.44243144923860867,-0.15390062452306585 l 2.0144958836078968 5.955499127426312" fill="#ff5107" stroke="none" /><path d="M 93.27111125876988 80.10723608172694 l -1.4955174129106148 -4.421231495240723 a25.667318316424044,25.667318316424044 0 0,0 0.4185939480443993,-0.13760014505446927 l 1.4194007272184543 4.446252561697221" fill="#ff3a05" stroke="none" /><path d="M 98.9189461498227 79.02784411241856 l -0.31965981139845134 -6.201314943324749 a27.20954824615496,27.20954824615496 0 0,0 0.466675159235912,-0.02004103931721512 l 0.21315889156171924 6.205888551067793" fill="#ff5007" stroke="none" /></svg>