<?xml version="1.0" encoding="utf-8" ?>
<svg baseProfile="full" height="200mm" version="1.1" viewBox="0,0,200,200" width="200mm" xmlns="http://www.w3.org/2000/svg" xmlns:ev="http://www.w3.org/2001/xml-events" xmlns:xlink="http://www.w3.org/1999/xlink"><defs /><rect fill="#1a1a1a" height="200" width="200" x="0" y="0" /><text alignment-baseline="middle" fill="#e1ed5e" style="dominant-baseline: central; font-size:9.0px; font-family:Arial;" text-anchor="middle" x="100.0" y="100.0">2023</text><line stroke="#e1ed5e" stroke-width="0.3" x1="100.0" x2="100.0" y1="15.0" y2="10.0" /><path d="M 100.0 14.0 a86.0,86.0 0 0,1 42.46469731375804,11.215312516191453" fill="none" id="id13" stroke="none" /><text fill="#e1ed5e" style="font-size:6.75px; font-family:Arial;" text-anchor="middle"><textPath startOffset="22.20632615414155" xlink:href="#id13">January</textPath></text><path d="M 100.36148047927253 79.00311137660856 l 0.04309179784494107 -2.5030222427302427 a23.50339314743886,23.50339314743886 0 0,0 0.40445239362037466,0.010445812076423186 l -0.08617082666018351 2.50190963851146" fill="#ff1602" stroke="none" /><path d="M 107.76421540070413 80.48803036053334 l 0.9906905066364237 -2.489668574347471 a23.67953676780762,23.67953676780762 0 0,0 0.3774249008028604,0.1539610936123716 l -1.0333992770276716 2.4722465945515197" fill="#ff1902" stroke="none" /><line stroke="#e1ed5e" stroke-width="0.3" x1="143.23703022742887" x2="145.7803849466894" y1="26.81831364943548" y2="22.513508569990506" /><path d="M 143.74570117128098 25.957352633546492 a86.0,86.0 0 0,1 28.547481713284135,27.462654790039103" fill="none" id="id14" stroke="none" /><text fill="#e1ed5e" style="font-size:6.75px; font-family:Arial;" text-anchor="middle"><textPath startOffset="19.985693538727396" xlink:href="#id14">February</textPath></text><path d="M 117.45458315368197 88.32363383020206 l 3.8927716072148644 -2.604096946975522 a25.683480724331577,25.683480724331577 0 0,0 0.24265185673463166,0.36957542519383846 l -3.937020099307421 2.5367034578040095" fill="#ff3505" stroke="none" /><path d="M 117.65298651832404 88.62581576622439 l 4.227976909393618 -2.724172946808426 a26.029603064903682,26.029603064903682 0 0,0 0.23943814251481352,0.3787336402641347 l -4.274242648154387 2.6509916588300855" fill="#ff3a05" stroke="none" /><line stroke="#e1ed5e" stroke-width="0.3" x1="172.23445277983987" x2="176.4835382374775" y1="55.19839476539836" y2="52.563006222186495" /><path d="M 173.08426987136738 54.67131705675599 a86.0,86.0 0 0,1 12.851231095245387,41.99856678651699" fill="none" id="id15" stroke="none" /><text fill="#e1ed5e" style="font-size:6.75px; font-family:Arial;" text-anchor="middle"><textPath startOffset="22.20632615414155" xlink:href="#id15">March</textPath></text><path d="M 118.73160827565052 90.50648371742162 l 2.237651131105762 -1.134081875686927 a23.50862996181192,23.50862996181192 0 0,0 0.17982981012136137,0.362525923840909 l -2.2568409541805314 1.0953963633470682" fill="#ff1602" stroke="none" /><path d="M 118.89224826269711 90.83032412892265 l 1.9557041771940713 -0.9492344772956869 a23.17389625363796,23.17389625363796 0 0,0 0.17109155861370423,0.36036245622784496 l -1.971753929649532 0.9154296054273017" fill="#ff1101" stroke="none" /><path d="M 119.196687751892 91.48605970444005 l 2.11743977876135 -0.9391076256913641 a23.31634935821706,23.31634935821706 0 0,0 0.15956076263473526,0.36828823939229594 l -2.133291251238766 0.9025202417124654" fill="#ff1302" stroke="none" /><path d="M 119.34039704204932 91.81776055985345 l 2.7053629606533014 -1.1445435927939736 a23.937510644181657,23.937510644181657 0 0,0 0.15727892089656567,0.38086338220313454 l -2.7246635684360645 1.0978056401375358" fill="#ff1c02" stroke="none" /><path d="M 119.85752413597 93.16781622104841 l 5.344795971908329 -1.8389315853798454 a26.652301598201845,26.652301598201845 0 0,0 0.14552500135527627,0.4351012312804852 l -5.375658267035376 1.746657251177046" fill="#ff4306" stroke="none" /><path d="M 120.45610955862082 95.25157060432595 l 4.435057500627906 -1.029499639075364 a25.552977546697562,25.552977546697562 0 0,0 0.09576965532076197,0.4293165862606908 l -4.452121542950705 0.9530048832647092" fill="#ff3304" stroke="none" /><line stroke="#e1ed5e" stroke-width="0.3" x1="184.98032266829074" x2="189.97916517819016" y1="98.17113171792111" y2="98.06355123074" /><path d="M 185.9800911702706 98.14961562048488 a86.0,86.0 0 0,1 -9.607161424134198,41.387399972396054" fill="none" id="id16" stroke="none" /><text fill="#e1ed5e" style="font-size:6.75px; font-family:Arial;" text-anchor="middle"><textPath startOffset="21.466115282336823" xlink:href="#id16">April</textPath></text><path d="M 120.99980553446 99.90962569577887 l 4.457719568060991 -0.019184144525307294 a25.457760848102446,25.457760848102446 0 0,0 -0.001885938454979859,0.4382256787022076 l -4.457389332316508 -0.05755101238058499" fill="#ff3204" stroke="none" /><path d="M 120.9904718944345 100.63252640178507 l 5.405645971342017 0.1628936125291929 a26.408099730634504,26.408099730634504 0 0,0 -0.01760271769912374,0.4542479278965942 l -5.40204112079169 -0.25591878743979324" fill="#ff3f05" stroke="none" /><path d="M 120.8583938346157 102.4346265915055 l 3.346916878771001 0.3906577321927639 a24.369638861528667,24.369638861528667 0 0,0 -0.05221890328419754,0.4162360378122988 l -3.339696466239955 -0.44821152429245764" fill="#ff2303" stroke="none" /><line stroke="#e1ed5e" stroke-width="0.3" x1="174.80103733775053" x2="179.2010983576182" y1="140.37084112569926" y2="142.7455964860345" /><path d="M 175.68104954172406 140.8457921977663 a86.0,86.0 0 0,1 -30.038265399797805,32.042727171017184" fill="none" id="id17" stroke="none" /><text fill="#e1ed5e" style="font-size:6.75px; font-family:Arial;" text-anchor="middle"><textPath startOffset="22.206326154141568" xlink:href="#id17">May</textPath></text><path d="M 118.48025628344425 109.97397251340804 l 3.976888514973653 2.1463650789718782 a25.519128822323978,25.519128822323978 0 0,0 -0.21195895604091516,0.3847670728548606 l -3.9393531494812284 -2.214502670224544" fill="#ff3304" stroke="none" /><path d="M 118.12598468904814 110.60418214915192 l 0.8452153125856869 0.49447339185530775 a21.979230749048565,21.979230749048565 0 0,0 -0.19385589867454156,0.3249136367489901 l -0.8365785382129182 -0.5089491224904019" fill="#ff0000" stroke="none" /><path d="M 117.75023020441432 111.22182372390056 l 1.3048652672152399 0.8249452454136753 a22.54376423831987,22.54376423831987 0 0,0 -0.21018854281130506,0.3262172861185051 l -1.2904718610268846 -0.8472841314536333" fill="#ff0801" stroke="none" /><path d="M 116.93607887273984 112.41649034213515 l 4.105222724995302 3.0096965596483307 a26.090297339348346,26.090297339348346 0 0,0 -0.2686539451528141,0.3599058623324573 l -4.052807513147396 -3.079915301490103" fill="#ff3b05" stroke="none" /><path d="M 116.71984013943494 112.70617746262583 l 1.7297615229205505 1.314525539416624 a23.172568139312318,23.172568139312318 0 0,0 -0.2440768619031273,0.3155022459018814 l -1.7068778437993548 -1.3441057794317581" fill="#ff1101" stroke="none" /><path d="M 116.27256486870786 113.27417163493432 l 2.032124413194054 1.657683866183293 a23.622488404341127,23.622488404341127 0 0,0 -0.25973938404908353,0.31287282041085596 l -2.003289029251427 -1.6924179437079194" fill="#ff1802" stroke="none" /><line stroke="#e1ed5e" stroke-width="0.3" x1="143.8653032363475" x2="146.44561519142675" y1="172.8068346515853" y2="177.08958963109032" /><path d="M 144.38136562736335 173.6633856474863 a86.0,86.0 0 0,1 -40.68145358897372,12.25698825130547" fill="none" id="id18" stroke="none" /><text fill="#e1ed5e" style="font-size:6.75px; font-family:Arial;" text-anchor="middle"><textPath startOffset="21.466115282336833" xlink:href="#id18">June</textPath></text><path d="M 109.57404056367764 118.69057910512821 l 0.9060852867899706 1.7688726735700666 a22.987435805816173,22.987435805816173 0 0,0 -0.3537285739544233,0.17736685026548626 l -0.8755028051527868 -1.784207364744855" fill="#ff0f01" stroke="none" /><path d="M 109.2508944713604 118.85261126421891 l 0.9110715227127129 1.8566936748416853 a23.06817860004768,23.06817860004768 0 0,0 -0.35798224657446026,0.1718532329010393 l -0.8789766081380199 -1.8721011842422848" fill="#ff1001" stroke="none" /><path d="M 108.59647513512805 119.15986991738527 l 1.018531241360404 2.270107897074445 a23.488130976051487,23.488130976051487 0 0,0 -0.370306407481021,0.16233144673750438 l -0.9793041592216293 -2.2873038971064035" fill="#ff1602" stroke="none" /><path d="M 107.59598834532513 119.57807347666477 l 0.9316663325516295 2.4012980385437745 a23.575700763894048,23.575700763894048 0 0,0 -0.3796022140341579,0.14353307607744253 l -0.8901938977571968 -2.416979364727848" fill="#ff1702" stroke="none" /><path d="M 104.48393922423573 120.51570834832081 l 0.8960402448395942 4.09972111845927 a25.19649870362343,25.19649870362343 0 0,0 -0.4245112563535989,0.08896046121453027 l -0.8253375270566173 -4.114537560400342" fill="#ff2e04" stroke="none" /><path d="M 103.06178313531738 120.77559828337769 l 3.5583858844759764 24.145274960975097 a45.40607328195031,45.40607328195031 0 0,0 -0.7742198394639032,0.10729981504245302 l -3.142237453825243 -24.202949341510156" fill="#cbff1d" stroke="none" /><path d="M 102.70371172650421 120.8252237178851 l 8.111135179512624 62.47567115365527 a84.0,84.0 0 0,0 -1.4354903077944787,0.1738178850985963 l -7.034517448666764 -62.60603456747921" fill="#4dd2ff" stroke="none" /><path d="M 102.34483914955558 120.86867818915974 l 0.5245479101467105 4.668389101965765 a25.69776620505874,25.69776620505874 0 0,0 -0.44000376511377465,0.045608189320895616 l -0.44411154842733325 -4.676726659742419" fill="#ff3505" stroke="none" /><path d="M 100.90346689309514 120.98055641714683 l 0.12281223971030102 2.8519795729656985 a23.854622624942966,23.854622624942966 0 0,0 -0.41038998442253705,0.014134660847220435 l -0.0737019036131117 -2.8536710322390126" fill="#ff1b02" stroke="none" /><line stroke="#e1ed5e" stroke-width="0.3" x1="102.19456741930631" x2="102.32365962044197" y1="184.97166512339345" y2="189.96999836594603" /><path d="M 102.22038585953345 185.97133177190398 a86.0,86.0 0 0,1 -42.740103519485714,-10.115201625700543" fill="none" id="id19" stroke="none" /><text fill="#e1ed5e" style="font-size:6.75px; font-family:Arial;" text-anchor="middle"><textPath startOffset="22.20632615414155" xlink:href="#id19">July</textPath></text><path d="M 96.93821686468263 120.77559828337769 l -1.0553460495681377 7.161005403312013 a28.238352966704714,28.238352966704714 0 0,0 -0.48027271192718846,-0.07500872029584126 l 1.1784546251038432 -7.141778375669067" fill="#ff5908" stroke="none" /><path d="M 95.51606077576429 120.51570834832081 l -1.9956522584037655 9.130859641626389 a30.34640175316435,30.34640175316435 0 0,0 -0.5093569122104543,-0.11592797489536466 l 2.1525293200070825 -9.095154933153339" fill="#ff760a" stroke="none" /><path d="M 92.7421414339146 119.70592522655815 l -4.529990161272187 12.29944708652834 a34.107143452924184,34.107143452924184 0 0,0 -0.5491733755349817,-0.207650379729545 l 4.741033757567452 -12.219648456692163" fill="#ffa80f" stroke="none" /><line stroke="#e1ed5e" stroke-width="0.3" x1="58.666819895761336" x2="56.23545636021788" y1="174.27360380694188" y2="178.64263932499728" /><path d="M 58.180547188652646 175.14741091055294 a86.0,86.0 0 0,1 -31.652253787137756,-30.449443065178592" fill="none" id="id20" stroke="none" /><text fill="#e1ed5e" style="font-size:6.75px; font-family:Arial;" text-anchor="middle"><textPath startOffset="22.20632615414155" xlink:href="#id20">August</textPath></text><path d="M 87.65650970185807 116.9893568818739 l -1.1545882924175572 1.589154451271211 a22.964302928517593,22.964302928517593 0 0,0 -0.3177986464232472,-0.2350998411313106 l 1.1817719092593688 -1.5690446614001337" fill="#ff0e01" stroke="none" /><path d="M 86.51685102203217 116.09983520530335 l -0.9251255323837538 1.1046654338637902 a22.440882705650186,22.440882705650186 0 0,0 -0.2940124556385351,-0.25056379315916905 l 0.9440034645993455 -1.0885772504816698" fill="#ff0701" stroke="none" /><path d="M 86.24171649860922 115.8653595955263 l -6.7352655839132005 7.766769048577423 a31.28039415293917,31.28039415293917 0 0,0 -0.403751906630963,-0.35626411417259324 l 6.867959843450752 -7.649681792632541" fill="#ff820c" stroke="none" /><path d="M 85.70375840098266 115.38237550388516 l -5.476655880136015 5.892735980315513 a29.044755867217688,29.044755867217688 0 0,0 -0.36328650310405514,-0.3435100638851085 l 5.577278217630886 -5.797591279684474" fill="#ff6409" stroke="none" /><path d="M 85.44109423537348 115.13401014063109 l -3.387768896164275 3.521592189519882 a25.886572381854744,25.886572381854744 0 0,0 -0.31846653369902966,-0.3116865315447344 l 3.4478853822390993 -3.462755555052578" fill="#ff3805" stroke="none" /><path d="M 83.95833913139862 113.55231037782056 l -8.426951768005758 7.119254473361451 a32.03164993809958,32.03164993809958 0 0,0 -0.35220171908176906,-0.4242496593502422 l 8.548249486981064 -6.973143556897448" fill="#ff8c0c" stroke="none" /><path d="M 83.50135304334701 112.99209946851258 l -10.146918103381358 7.990338216481565 a33.915318494349805,33.915318494349805 0 0,0 -0.3572303448965781,-0.46176837591392356 l 10.282955265496003 -7.814491846454388" fill="#ffa50f" stroke="none" /><path d="M 83.06392112726016 112.41649034213515 l -2.801751511722543 2.054071715641324 a24.47404981922212,24.47404981922212 0 0,0 -0.24616256591551536,-0.34189827407021034 l 2.836693870013666 -2.0055398361199757" fill="#ff2403" stroke="none" /><line stroke="#e1ed5e" stroke-width="0.3" x1="26.63291911575756" x2="22.317208475507996" y1="142.92168965132927" y2="145.44649492493687" /><path d="M 25.769776987707644 143.4266507060508 a86.0,86.0 0 0,1 -11.730757126820373,-40.83630448921669" fill="none" id="id21" stroke="none" /><text fill="#e1ed5e" style="font-size:6.75px; font-family:Arial;" text-anchor="middle"><textPath startOffset="21.46611528233685" xlink:href="#id21">September</textPath></text><path d="M 81.87401531095188 110.60418214915194 l -22.44977144826827 13.133712166716435 a47.00935665020641,47.00935665020641 0 0,0 -0.40259709312859976,-0.7019619668796929 l 22.672520537549246 -12.745330353978437" fill="#b9ff1f" stroke="none" /><path d="M 81.18737489456691 109.33194174019688 l -4.168989027306678 2.06801350158784 a25.653724245435377,25.653724245435377 0 0,0 -0.19282651561171432,-0.39727973548746315 l 4.2039687995331105 -1.9959448101350916" fill="#ff3505" stroke="none" /><path d="M 80.73074385275274 108.34839909993369 l -6.972753449519823 3.0209432153065587 a28.599038661429308,28.599038661429308 0 0,0 -0.19181650163360034,-0.4533975481832483 l 7.02372093234573 -2.900471141457152" fill="#ff5e08" stroke="none" /><path d="M 80.58989483394504 108.01547362559985 l -13.577182909379133 5.606747134497485 a35.68929913865643,35.68929913865643 0 0,0 -0.22959671488659741,-0.5698402172589868 l 13.671682238523116 -5.372207549395693" fill="#ffbc11" stroke="none" /><path d="M 79.86692584326677 105.97154293290107 l -1.2867538627035913 0.3816558701067029 a22.342161207295725,22.342161207295725 0 0,0 -0.10618629506503638,-0.36964842345457666 l 1.2931327946547317 -0.3594499711475302" fill="#ff0500" stroke="none" /><path d="M 79.23777060512086 103.15116336523772 l -4.104718553484776 0.622988913394004 a25.151726097604946,25.151726097604946 0 0,0 -0.06128152068354904,-0.4286028129303171 l 4.114834125184924 -0.5522406284832863" fill="#ff2e04" stroke="none" /><path d="M 79.18660465613746 102.79330883721812 l -6.7128832939565966 0.9009176983587259 a27.77306834584574,27.77306834584574 0 0,0 -0.05951172186415212,-0.4743669773627255 l 6.727396525067596 -0.7852329667085918" fill="#ff5207" stroke="none" /><path d="M 79.0235259727143 100.99374915477108 l -11.726608078288525 0.5555417393300981 a32.73975994839416,32.73975994839416 0 0,0 -0.021823181440056967,-0.563159343840944 l 11.734433392579783 -0.3536051484751572" fill="#ff960d" stroke="none" /><line stroke="#e1ed5e" stroke-width="0.3" x1="15.007084014347285" x2="10.007500721073583" y1="101.09737516637583" y2="101.16192664675087" /><path d="M 14.007167355692545 101.11028546245083 a86.0,86.0 0 0,1 10.666146001902534,-42.60595125391555" fill="none" id="id22" stroke="none" /><text fill="#e1ed5e" style="font-size:6.75px; font-family:Arial;" text-anchor="middle"><textPath startOffset="22.20632615414155" xlink:href="#id22">October</textPath></text><path d="M 79.16333360222342 97.38593545837743 l -10.84901898044546 -1.3610639670844307 a31.93406182352018,31.93406182352018 0 0,0 0.07311987899092076,-0.544828029273356 l 10.823983102396706 1.547610338422446" fill="#ff8b0c" stroke="none" /><path d="M 79.54389044137918 95.25157060432595 l -7.769913926301851 -1.8036121474506004 a28.97650168937303,28.97650168937303 0 0,0 0.11696461459266294,-0.48489383945200576 l 7.737716511448373 1.9370912185620028" fill="#ff6309" stroke="none" /><path d="M 79.91906864156998 93.8553929516997 l -10.735612099761005 -3.2850128611348888 a32.22696204030086,32.22696204030086 0 0,0 0.16688120936633216,-0.5290590380940943 l 10.677475406626467 3.4693220656553976" fill="#ff8f0d" stroke="none" /><path d="M 80.2630227832202 92.82701384747504 l -1.6563587359407421 -0.601968485144512 a22.762353630584506,22.762353630584506 0 0,0 0.13700271684805715,-0.3670991676873877 l 1.6457514305910572 0.6303907898612411" fill="#ff0b01" stroke="none" /><path d="M 80.52162464483688 92.15188598940014 l -15.912433842701718 -6.411345541225955 a38.155491903392246,38.155491903392246 0 0,0 0.25069668613606316,-0.6070819105612446 l 15.799715469679455 6.6843020222405105" fill="#ffdb14" stroke="none" /><line stroke="#e1ed5e" stroke-width="0.3" x1="26.266209847984243" x2="21.928928074336255" y1="57.711370442889674" y2="55.22380399835377" /><path d="M 25.398753493254645 57.213857153982495 a86.0,86.0 0 0,1 29.58750427330803,-30.492523968695096" fill="none" id="id23" stroke="none" /><text fill="#e1ed5e" style="font-size:6.75px; font-family:Arial;" text-anchor="middle"><textPath startOffset="21.46611528233685" xlink:href="#id23">November</textPath></text><line stroke="#e1ed5e" stroke-width="0.3" x1="56.762969772571076" x2="54.21961505331055" y1="26.818313649435495" y2="22.513508569990535" /><path d="M 56.25429882871897 25.957352633546506 a86.0,86.0 0 0,1 42.265352541879196,-11.944610805530505" fill="none" id="id24" stroke="none" /><text fill="#e1ed5e" style="font-size:6.75px; font-family:Arial;" text-anchor="middle"><textPath startOffset="22.20632615414155" xlink:href="#id24">December</textPath></text></svg>