<?xml version="1.0" encoding="utf-8" ?>
<svg baseProfile="full" height="200mm" version="1.1" viewBox="0,0,200,200" width="200mm" xmlns="http://www.w3.org/2000/svg" xmlns:ev="http://www.w3.org/2001/xml-events" xmlns:xlink="http://www.w3.org/1999/xlink"><defs /><rect fill="#1a1a1a" height="200" width="200" x="0" y="0" /><text alignment-baseline="middle" fill="#e1ed5e" style="dominant-baseline: central; font-size:9.0px; font-family:Arial;" text-anchor="middle" x="100.0" y="100.0">2022</text><line stroke="#e1ed5e" stroke-width="0.3" x1="100.0" x2="100.0" y1="15.0" y2="10.0" /><path d="M 100.0 14.0 a86.0,86.0 0 0,1 42.46469731375804,11.215312516191453" fill="none" id="id1" stroke="none" /><text fill="#e1ed5e" style="font-size:6.75px; font-family:Arial;" text-anchor="middle"><textPath startOffset="22.20632615414155" xlink:href="#id1">January</textPath></text><line stroke="#e1ed5e" stroke-width="0.3" x1="143.23703022742887" x2="145.7803849466894" y1="26.81831364943548" y2="22.513508569990506" /><path d="M 143.74570117128098 25.957352633546492 a86.0,86.0 0 0,1 28.547481713284135,27.462654790039103" fill="none" id="id2" stroke="none" /><text fill="#e1ed5e" style="font-size:6.75px; font-family:Arial;" text-anchor="middle"><textPath startOffset="19.985693538727396" xlink:href="#id2">February</textPath></text><line stroke="#e1ed5e" stroke-width="0.3" x1="172.23445277983987" x2="176.4835382374775" y1="55.19839476539836" y2="52.563006222186495" /><path d="M 173.08426987136738 54.67131705675599 a86.0,86.0 0 0,1 12.851231095245387,41.99856678651699" fill="none" id="id3" stroke="none" /><text fill="#e1ed5e" style="font-size:6.75px; font-family:Arial;" text-anchor="middle"><textPath startOffset="22.20632615414155" xlink:href="#id3">March</textPath></text><line stroke="#e1ed5e" stroke-width="0.3" x1="184.98032266829074" x2="189.97916517819016" y1="98.17113171792111" y2="98.06355123074" /><path d="M 185.9800911702706 98.14961562048488 a86.0,86.0 0 0,1 -9.607161424134198,41.387399972396054" fill="none" id="id4" stroke="none" /><text fill="#e1ed5e" style="font-size:6.75px; font-family:Arial;" text-anchor="middle"><textPath startOffset="21.466115282336823" xlink:href="#id4">April</textPath></text><line stroke="#e1ed5e" stroke-width="0.3" x1="174.80103733775053" x2="179.2010983576182" y1="140.37084112569926" y2="142.7455964860345" /><path d="M 175.68104954172406 140.8457921977663 a86.0,86.0 0 0,1 -30.038265399797805,32.042727171017184" fill="none" id="id5" stroke="none" /><text fill="#e1ed5e" style="font-size:6.75px; font-family:Arial;" text-anchor="middle"><textPath startOffset="22.206326154141568" xlink:href="#id5">May</textPath></text><line stroke="#e1ed5e" stroke-width="0.3" x1="143.8653032363475" x2="146.44561519142675" y1="172.8068346515853" y2="177.08958963109032" /><path d="M 144.38136562736335 173.6633856474863 a86.0,86.0 0 0,1 -40.68145358897372,12.25698825130547" fill="none" id="id6" stroke="none" /><text fill="#e1ed5e" style="font-size:6.75px; font-family:Arial;" text-anchor="middle"><textPath startOffset="21.466115282336833" xlink:href="#id6">June</textPath></text><path d="M 108.92500713936063 119.00905698771935 l 2.926693609154694 6.233461187572909 a27.886332395320807,27.886332395320807 0 0,0 -0.4362644129776516,0.20026759457981622 l -2.818961200409623 -6.2829158524868" fill="red" stroke="none" /><line stroke="#e1ed5e" stroke-width="0.3" x1="102.19456741930631" x2="102.32365962044197" y1="184.97166512339345" y2="189.96999836594603" /><path d="M 102.22038585953345 185.97133177190398 a86.0,86.0 0 0,1 -42.740103519485714,-10.115201625700543" fill="none" id="id7" stroke="none" /><text fill="#e1ed5e" style="font-size:6.75px; font-family:Arial;" text-anchor="middle"><textPath startOffset="22.20632615414155" xlink:href="#id7">July</textPath></text><path d="M 98.37488393609728 120.93702456842531 l -0.6388634789915727 8.230735424148099 a29.25549224256892,29.25549224256892 0 0,0 -0.5017396080204497,-0.04329220459017102 l 0.7804474047535641 -8.218518967279266" fill="red" stroke="none" /><path d="M 97.65516085044442 120.86867818915974 l -0.6127316604971046 5.453209804027306 a26.48752560399631,26.48752560399631 0 0,0 -0.45264983669040293,-0.05480959145216435 l 0.7065089202388969 -5.441854683849794" fill="red" stroke="none" /><path d="M 95.86986931433489 120.58985236759428 l -5.954919954087248 29.686935365279584 a51.278295907165486,51.278295907165486 0 0,0 -0.8639380445383656,-0.1810466171452858 l 6.465049460055 -29.580032767407758" fill="red" stroke="none" /><path d="M 93.42475214034765 119.94407469862007 l -10.92902953400023 33.14998705175047 a55.90509028904342,55.90509028904342 0 0,0 -0.9113335470865114,-0.309173819207631 l 11.498032814023967 -32.95695024564472" fill="red" stroke="none" /><path d="M 92.7421414339146 119.70592522655815 l -1.1774719278919061 3.196972434242962 a24.40691545041594,24.40691545041594 0 0,0 -0.3929859491986467,-0.1485936595159585 l 1.232328097850836 -3.17623052462037" fill="red" stroke="none" /><path d="M 91.40352486487194 119.15986991738527 l -2.7880658978399966 6.2140562363083705 a27.810859443469766,27.810859443469766 0 0,0 -0.43508368535208153,-0.19972558043794997 l 2.894617578959498 -6.165143585536346" fill="red" stroke="none" /><path d="M 91.07499286063937 119.00905698771935 l -1.2892868727055944 2.746006502190295 a24.033613744398313,24.033613744398313 0 0,0 -0.3729642981654609,-0.17904552812249788 l 1.3363638388712973 -2.723406697568235" fill="red" stroke="none" /><path d="M 90.7491055286396 118.85261126421891 l -13.528012098374584 27.56904795075472 a51.709274108073316,51.709274108073316 0 0,0 -0.7956976125992811,-0.39897930136875437 l 14.000563618656624 -27.332100808476664" fill="red" stroke="none" /><line stroke="#e1ed5e" stroke-width="0.3" x1="58.666819895761336" x2="56.23545636021788" y1="174.27360380694188" y2="178.64263932499728" /><path d="M 58.180547188652646 175.14741091055294 a86.0,86.0 0 0,1 -31.652253787137756,-30.449443065178592" fill="none" id="id8" stroke="none" /><text fill="#e1ed5e" style="font-size:6.75px; font-family:Arial;" text-anchor="middle"><textPath startOffset="22.20632615414155" xlink:href="#id8">August</textPath></text><path d="M 86.51685102203217 116.09983520530335 l -9.701357181158917 11.5841078474819 a36.109860547950646,36.109860547950646 0 0,0 -0.4730985367966356,-0.4031848367116626 l 9.89932119453261 -11.415398620547284" fill="red" stroke="none" /><path d="M 85.97065885151581 115.62618273729859 l -42.08802344545257 46.878548211895755 a84.0,84.0 0 0,0 -1.0676018021325815,-0.9752289336536961 l 42.888724797052014 -46.14712651165548" fill="red" stroke="none" /><path d="M 84.67929136418377 114.36230785411682 l -15.329462274658336 14.370513901166118 a42.01199855829478,42.01199855829478 0 0,0 -0.4900471406729791,-0.5318493857147812 l 15.574555823327046 -14.104513260649993" fill="red" stroke="none" /><line stroke="#e1ed5e" stroke-width="0.3" x1="26.63291911575756" x2="22.317208475507996" y1="142.92168965132927" y2="145.44649492493687" /><path d="M 25.769776987707644 143.4266507060508 a86.0,86.0 0 0,1 -11.730757126820373,-40.83630448921669" fill="none" id="id9" stroke="none" /><text fill="#e1ed5e" style="font-size:6.75px; font-family:Arial;" text-anchor="middle"><textPath startOffset="21.46611528233685" xlink:href="#id9">September</textPath></text><path d="M 81.69416730710424 110.29060199501025 l -10.616971225007122 5.968317699714642 a33.179527665609875,33.179527665609875 0 0,0 -0.27558534991135314,-0.5002674592651029 l 10.718132984369992 -5.784679722051717" fill="red" stroke="none" /><path d="M 81.35079622478065 109.6543875284942 l -8.1668255886732 4.227831925749142 a30.196282019826874,30.196282019826874 0 0,0 -0.23498650358043546,-0.46365066473957695 l 8.238390762039902 -4.08662704930688" fill="red" stroke="none" /><path d="M 80.87730276802145 108.67885076344099 l -7.170228885453927 3.2542138633300883 a28.874140596794522,28.874140596794522 0 0,0 -0.20151251072298668,-0.45435751393116824 l 7.2251824809081935 -3.130308012906224" fill="red" stroke="none" /><path d="M 79.86692584326677 105.97154293290107 l -7.681084655263779 2.2782376120546615 a29.011830508585987,29.011830508585987 0 0,0 -0.13788544296044028,-0.4799973158159951 l 7.719162735110323 -2.1456828207340704" fill="red" stroke="none" /><path d="M 79.29508885075956 103.50808413554451 l -9.080792294652577 1.5385810234792618 a30.21021282405744,30.21021282405744 0 0,0 -0.0824569714022385,-0.5134596396330732 l 9.105931020416106 -1.382042154152975" fill="red" stroke="none" /><path d="M 79.23777060512086 103.15116336523772 l -8.554932489885704 1.298414989136897 a29.65290421711216,29.65290421711216 0 0,0 -0.07224852306583032,-0.5053060020488124 l 8.576015063968134 -1.150963515107684" fill="red" stroke="none" /><path d="M 79.18660465613746 102.79330883721812 l -10.29025908122706 1.3810275139626167 a31.38251746702589,31.38251746702589 0 0,0 -0.06724599628812342,-0.5360167543422606 l 10.312506586762032 -1.2036930053329475" fill="red" stroke="none" /><line stroke="#e1ed5e" stroke-width="0.3" x1="15.007084014347285" x2="10.007500721073583" y1="101.09737516637583" y2="101.16192664675087" /><path d="M 14.007167355692545 101.11028546245083 a86.0,86.0 0 0,1 10.666146001902534,-42.60595125391555" fill="none" id="id10" stroke="none" /><text fill="#e1ed5e" style="font-size:6.75px; font-family:Arial;" text-anchor="middle"><textPath startOffset="22.20632615414155" xlink:href="#id10">October</textPath></text><path d="M 79.00175016825051 100.2711162175752 l -16.920524734624173 0.21846719141815196 a37.92193503145413,37.92193503145413 0 0,0 -0.0028092979578916107,-0.6527819086688893 l 16.921778329871568 0.07282419545441275" fill="red" stroke="none" /><path d="M 79.00019446554 99.90962569577889 l -48.51086458222316 -0.20877029678151923 a69.5113138097868,69.5113138097868 0 0,0 0.015448038418500747,-1.1964675998484917 l 48.500083536686944 1.0437741546904828" fill="red" stroke="none" /><path d="M 79.81627453868168 94.20196356495316 l -7.646390405246817 -2.196524633233787 a28.955627360167984,28.955627360167984 0 0,0 0.14173655895505624,-0.4778652157786717 l 7.607447949180054 2.327819235758998" fill="red" stroke="none" /><path d="M 80.38941819471856 92.48833698450439 l -4.796103625975408 -1.8371058331385832 a26.13590964029219,26.13590964029219 0 0,0 0.16453980162647228,-0.4187358479252723 l 4.7637702744672445 1.9193906859596188" fill="red" stroke="none" /><line stroke="#e1ed5e" stroke-width="0.3" x1="26.266209847984243" x2="21.928928074336255" y1="57.711370442889674" y2="55.22380399835377" /><path d="M 25.398753493254645 57.213857153982495 a86.0,86.0 0 0,1 29.58750427330803,-30.492523968695096" fill="none" id="id11" stroke="none" /><text fill="#e1ed5e" style="font-size:6.75px; font-family:Arial;" text-anchor="middle"><textPath startOffset="21.46611528233685" xlink:href="#id11">November</textPath></text><path d="M 81.96595687620814 89.24020034530311 l -7.5092633944863145 -4.480313655922607 a29.744269391047986,29.744269391047986 0 0,0 0.26611801476651253,-0.43742804525552403 l 7.431029581433585 4.6089094743852055" fill="red" stroke="none" /><path d="M 82.95767976084542 87.72973835380427 l -6.820946928897651 -4.910998169140218 a29.40495211313764,29.40495211313764 0 0,0 0.2992827449439883,-0.40822132776289 l 6.73540157144003 5.027681940574609" fill="red" stroke="none" /><path d="M 83.17141714833178 87.43820079747576 l -8.271314183603229 -6.174173359173531 a31.32158200049799,31.32158200049799 0 0,0 0.3262277892263047,-0.4292775306301968 l 8.163810454152815 6.315635665684754" fill="red" stroke="none" /><path d="M 84.07557802195018 86.31012108654704 l -5.127833234785784 -4.408286603391941 a27.762223337144263,27.762223337144263 0 0,0 0.31464928759092414,-0.3596985283455509 l 5.051192083617016 4.495900687940435" fill="red" stroke="none" /><path d="M 84.31358615837235 86.03803664274999 l -7.874578369482819 -7.008904377924064 a31.54199815386105,31.54199815386105 0 0,0 0.3644698304624454,-0.40245668996551803 l 7.752764898404329 7.143413855159138" fill="red" stroke="none" /><path d="M 86.10567301691215 84.25364557470407 l -2.293658606590666 -2.599389045181413 a24.46665446962869,24.46665446962869 0 0,0 0.3181902410486777,-0.27593144153871013 l 2.248574566895215 2.6384854801398037" fill="red" stroke="none" /><path d="M 86.93701828274178 83.55741782278169 l -4.939098075820438 -6.216921048410055 a28.940075385330868,28.940075385330868 0 0,0 0.39271330171673036,-0.30651896110508015 l 4.831352218944283 6.301018398738357" fill="red" stroke="none" /><line stroke="#e1ed5e" stroke-width="0.3" x1="56.762969772571076" x2="54.21961505331055" y1="26.818313649435495" y2="22.513508569990535" /><path d="M 56.25429882871897 25.957352633546506 a86.0,86.0 0 0,1 42.265352541879196,-11.944610805530505" fill="none" id="id12" stroke="none" /><text fill="#e1ed5e" style="font-size:6.75px; font-family:Arial;" text-anchor="middle"><textPath startOffset="22.20632615414155" xlink:href="#id12">December</textPath></text></svg>