<?xml version="1.0" encoding="utf-8" ?>
<svg baseProfile="full" height="200mm" version="1.1" viewBox="0,0,200,200" width="200mm" xmlns="http://www.w3.org/2000/svg" xmlns:ev="http://www.w3.org/2001/xml-events" xmlns:xlink="http://www.w3.org/1999/xlink"><defs /><rect fill="#1a1a1a" height="200" width="200" x="0" y="0" /><text alignment-baseline="middle" fill="#e1ed5e" style="dominant-baseline: central; font-size:9.0px; font-family:Arial;" text-anchor="middle" x="100.0" y="100.0">2025</text><line stroke="#e1ed5e" stroke-width="0.3" x1="100.0" x2="100.0" y1="15.0" y2="10.0" /><path d="M 100.0 14.0 a86.0,86.0 0 0,1 42.46469731375804,11.215312516191453" fill="none" id="id37" stroke="none" /><text fill="#e1ed5e" style="font-size:6.75px; font-family:Arial;" text-anchor="middle"><textPath startOffset="22.20632615414155" xlink:href="#id37">January</textPath></text><line stroke="#e1ed5e" stroke-width="0.3" x1="143.23703022742887" x2="145.7803849466894" y1="26.81831364943548" y2="22.513508569990506" /><path d="M 143.74570117128098 25.957352633546492 a86.0,86.0 0 0,1 28.547481713284135,27.462654790039103" fill="none" id="id38" stroke="none" /><text fill="#e1ed5e" style="font-size:6.75px; font-family:Arial;" text-anchor="middle"><textPath startOffset="19.985693538727396" xlink:href="#id38">February</textPath></text><path d="M 113.34407831869373 83.78471172551755 l 2.5973363227202504 -3.1561982935675617 a25.08751069009498,25.08751069009498 0 0,0 0.33108640496273317,0.2772753426210109 l -2.651280264642101 3.1110217935527316" fill="#ff0000" stroke="none" /><path d="M 113.89432698308785 84.25364557470407 l 5.961254566758253 -6.7558527550017695 a30.009889147873082,30.009889147873082 0 0,0 0.38439668782096176,0.3451151417111835 l -6.076662242175205 6.652238604521289" fill="#ff4a06" stroke="none" /><path d="M 114.42810811169701 84.74124197986012 l 29.31068343151064 -30.998147672857982 a63.66147351382208,63.66147351382208 0 0,0 0.7897562184130893,0.7597448563903602 l -29.839922893536148 30.489019729705323" fill="#32ff4d" stroke="none" /><path d="M 116.38621287248628 86.86637796730983 l 3.4899087275570513 -2.797177268048418 a25.472545538679924,25.472545538679924 0 0,0 0.271277660314771,0.3444950799220332 l -3.5375404684657865 2.736689794173347" fill="#ff0601" stroke="none" /><path d="M 116.82858285166822 87.43820079747576 l 9.602984530651037 -7.168206882436734 a32.98334268079389,32.98334268079389 0 0,0 0.3357034997695566,0.45789919641449406 l -9.72495064293422 7.001845242350746" fill="#ff750a" stroke="none" /><path d="M 117.2510076193507 88.02491185347247 l 7.591766904239676 -5.2699575510118715 a30.241611186247553,30.241611186247553 0 0,0 0.2931643883942265,0.4301825653830313 l -7.681355758302636 5.138496962358434" fill="#ff4d07" stroke="none" /><path d="M 117.45458315368197 88.32363383020206 l 6.287144539611182 -4.205829561243926 a28.564204436700265,28.564204436700265 0 0,0 0.26986829850311533,0.411027933219981 l -6.358609473472223 4.096983564046271" fill="#ff3505" stroke="none" /><line stroke="#e1ed5e" stroke-width="0.3" x1="172.23445277983987" x2="176.4835382374775" y1="55.19839476539836" y2="52.563006222186495" /><path d="M 173.08426987136738 54.67131705675599 a86.0,86.0 0 0,1 12.851231095245387,41.99856678651699" fill="none" id="id39" stroke="none" /><text fill="#e1ed5e" style="font-size:6.75px; font-family:Arial;" text-anchor="middle"><textPath startOffset="22.20632615414155" xlink:href="#id39">March</textPath></text><path d="M 117.84615892207809 88.93136811851018 l 27.91618713758912 -17.314313982628946 a53.849641900482816,53.849641900482816 0 0,0 0.4817855705259486,0.7919288009584456 l -28.21008850640129 16.831217408463417" fill="#7fff26" stroke="none" /><path d="M 118.3937258080291 89.86733742301442 l 13.358687531519053 -7.358980700320165 a36.25152875984723,36.25152875984723 0 0,0 0.2963854228102219,0.5491571753227473 l -13.483381053547738 7.127942541664959" fill="#ffa30f" stroke="none" /><path d="M 118.73160827565052 90.50648371742162 l 17.071393286505447 -8.652089438706275 a40.13873351081298,40.13873351081298 0 0,0 0.30704217291636193,0.6189782846320317 l -17.21779547237522 8.356951565575292" fill="#ffd714" stroke="none" /><path d="M 119.196687751892 91.48605970444005 l 41.49043030399186 -18.4014581583462 a66.38798815946541,66.38798815946541 0 0,0 0.45431288825568045,1.0486167838890077 l -41.80103390209022 17.684542229870587" fill="#36ff6e" stroke="none" /><path d="M 119.47837535516314 92.15188598940014 l 10.800276564390572 -4.351584784553352 a32.643979732225596,32.643979732225596 0 0,0 0.20551165133958407,0.5230047364318642 l -10.873581765611856 4.165031043225703" fill="#ff700a" stroke="none" /><path d="M 119.97218684219823 93.5106431181261 l 26.749525933472118 -8.691447840678011 a49.126116035327804,49.126116035327804 0 0,0 0.25439027250517576,0.8064866822521753 l -26.8951716897455 8.229710991999417" fill="#b6ff1f" stroke="none" /><path d="M 120.6074358757038 95.95851677861258 l 35.41385506601503 -6.945284309858755 a57.088476066211065,57.088476066211065 0 0,0 0.18081898374444538,0.9659422414561232 l -35.52815977366934 6.334663990940069" fill="#5cff2a" stroke="none" /><path d="M 120.96714384426684 98.82574320788733 l 29.233630097505788 -1.6372181616663979 a50.2794400900476,50.2794400900476 0 0,0 0.04095713333241893,0.8645403515109747 l -29.257480839071704 1.1337667035324235" fill="#a8ff21" stroke="none" /><line stroke="#e1ed5e" stroke-width="0.3" x1="184.98032266829074" x2="189.97916517819016" y1="98.17113171792111" y2="98.06355123074" /><path d="M 185.9800911702706 98.14961562048488 a86.0,86.0 0 0,1 -9.607161424134198,41.387399972396054" fill="none" id="id40" stroke="none" /><text fill="#e1ed5e" style="font-size:6.75px; font-family:Arial;" text-anchor="middle"><textPath startOffset="21.466115282336823" xlink:href="#id40">April</textPath></text><path d="M 120.95626037817324 101.35467743843564 l 23.61830574271596 1.5267602781389604 a44.66760154944545,44.66760154944545 0 0,0 -0.05620341662602435,0.7668509660396939 l -23.588525767425597 -1.9330843806754245" fill="#ecff1a" stroke="none" /><path d="M 120.41448212921028 104.9243191809786 l 17.83719005718501 4.302632639780551 a39.348787337833656,39.348787337833656 0 0,0 -0.1644942059272175,0.6570725844214532 l -17.76048453696273 -4.609033063599401" fill="#ffcd13" stroke="none" /><path d="M 120.32669344350535 105.2749913415812 l 4.114437600435054 1.0677399537752001 a25.250725276557123,25.250725276557123 0 0,0 -0.11280091009329204,0.41977414942568825 l -4.095448613999984 -1.1384050363764366" fill="#ff0300" stroke="none" /><path d="M 120.02730092923936 106.31721596034902 l 60.08190278771807 18.951647881047055 a84.0,84.0 0 0,0 -0.4468309959350121,1.375204400088819 l -59.746779540766816 -19.98305118111367" fill="#4dd2ff" stroke="none" /><path d="M 119.9155931802556 106.66101706037122 l 55.56248791768859 18.583562969307632 a79.58787311583782,79.58787311583782 0 0,0 -0.44572683924520323,1.2954908349551706 l -55.23437024750016 -19.537226507352106" fill="#47fdff" stroke="none" /><path d="M 119.41010516605496 108.01547362559984 l 4.1620588535554806 1.7187373630108325 a25.50297590749373,25.50297590749373 0 0,0 -0.17105091110698462,0.4043138262346074 l -4.1318569612561875 -1.7901257149116034" fill="#ff0601" stroke="none" /><line stroke="#e1ed5e" stroke-width="0.3" x1="174.80103733775053" x2="179.2010983576182" y1="140.37084112569926" y2="142.7455964860345" /><path d="M 175.68104954172406 140.8457921977663 a86.0,86.0 0 0,1 -30.038265399797805,32.042727171017184" fill="none" id="id41" stroke="none" /><text fill="#e1ed5e" style="font-size:6.75px; font-family:Arial;" text-anchor="middle"><textPath startOffset="22.206326154141568" xlink:href="#id41">May</textPath></text><line stroke="#e1ed5e" stroke-width="0.3" x1="143.8653032363475" x2="146.44561519142675" y1="172.8068346515853" y2="177.08958963109032" /><path d="M 144.38136562736335 173.6633856474863 a86.0,86.0 0 0,1 -40.68145358897372,12.25698825130547" fill="none" id="id42" stroke="none" /><text fill="#e1ed5e" style="font-size:6.75px; font-family:Arial;" text-anchor="middle"><textPath startOffset="21.466115282336833" xlink:href="#id42">June</textPath></text><line stroke="#e1ed5e" stroke-width="0.3" x1="102.19456741930631" x2="102.32365962044197" y1="184.97166512339345" y2="189.96999836594603" /><path d="M 102.22038585953345 185.97133177190398 a86.0,86.0 0 0,1 -42.740103519485714,-10.115201625700543" fill="none" id="id43" stroke="none" /><text fill="#e1ed5e" style="font-size:6.75px; font-family:Arial;" text-anchor="middle"><textPath startOffset="22.20632615414155" xlink:href="#id43">July</textPath></text><line stroke="#e1ed5e" stroke-width="0.3" x1="58.666819895761336" x2="56.23545636021788" y1="174.27360380694188" y2="178.64263932499728" /><path d="M 58.180547188652646 175.14741091055294 a86.0,86.0 0 0,1 -31.652253787137756,-30.449443065178592" fill="none" id="id44" stroke="none" /><text fill="#e1ed5e" style="font-size:6.75px; font-family:Arial;" text-anchor="middle"><textPath startOffset="22.20632615414155" xlink:href="#id44">August</textPath></text><line stroke="#e1ed5e" stroke-width="0.3" x1="26.63291911575756" x2="22.317208475507996" y1="142.92168965132927" y2="145.44649492493687" /><path d="M 25.769776987707644 143.4266507060508 a86.0,86.0 0 0,1 -11.730757126820373,-40.83630448921669" fill="none" id="id45" stroke="none" /><text fill="#e1ed5e" style="font-size:6.75px; font-family:Arial;" text-anchor="middle"><textPath startOffset="21.46611528233685" xlink:href="#id45">September</textPath></text><line stroke="#e1ed5e" stroke-width="0.3" x1="15.007084014347285" x2="10.007500721073583" y1="101.09737516637583" y2="101.16192664675087" /><path d="M 14.007167355692545 101.11028546245083 a86.0,86.0 0 0,1 10.666146001902534,-42.60595125391555" fill="none" id="id46" stroke="none" /><text fill="#e1ed5e" style="font-size:6.75px; font-family:Arial;" text-anchor="middle"><textPath startOffset="22.20632615414155" xlink:href="#id46">October</textPath></text><line stroke="#e1ed5e" stroke-width="0.3" x1="26.266209847984243" x2="21.928928074336255" y1="57.711370442889674" y2="55.22380399835377" /><path d="M 25.398753493254645 57.213857153982495 a86.0,86.0 0 0,1 29.58750427330803,-30.492523968695096" fill="none" id="id47" stroke="none" /><text fill="#e1ed5e" style="font-size:6.75px; font-family:Arial;" text-anchor="middle"><textPath startOffset="21.46611528233685" xlink:href="#id47">November</textPath></text><line stroke="#e1ed5e" stroke-width="0.3" x1="56.762969772571076" x2="54.21961505331055" y1="26.818313649435495" y2="22.513508569990535" /><path d="M 56.25429882871897 25.957352633546506 a86.0,86.0 0 0,1 42.265352541879196,-11.944610805530505" fill="none" id="id48" stroke="none" /><text fill="#e1ed5e" style="font-size:6.75px; font-family:Arial;" text-anchor="middle"><textPath startOffset="22.20632615414155" xlink:href="#id48">December</textPath></text></svg>